<?xml version="1.0" encoding="UTF-8"?><svg id="Layer_2" xmlns="http://www.w3.org/2000/svg" width="1462.37" height="696.81" viewBox="0 0 1462.37 696.81"><g id="Layer_1-2"><g id="SPpA5D.tif"><path d="M462.34,166.27c-17.85-5.49-40.57-8.06-58.81-3.61-6.47,1.58-23.06,6.59-17.55,15.48,3.71,2.34,17.42-5.06,22.52-6.12,35.64-7.39,101.21,13.22,101.95,57.69-35.59,6.5-73.86,1.46-107.71-10.92-12.4-4.53-30.64-12.96-39.93-22.4-3.94-4-5.88-9.33-9.43-13.55-14.5-1.38-6.04,12.31-.93,18.44,12.81,15.37,43.03,27.7,62.04,33.09,30.2,8.55,63.92,12.21,94.85,6.28-3.59,15.9-22.82,22.73-37.13,25.74-36.79,7.74-75.81-1.19-111.54,12.54-.53-4.67-4.11-9.53-6.77-13.47-33.77-49.93-109.01-65.67-157.78-28.12-4.08-9.54-7.54-25.17-17.63-30.46-6.68-3.5-11.47,1.94-7,6.98,4.78,5.38,7.19,5.06,10.7,13.38,35.84,84.78-87.32,142.19-154.39,145.81-3.29.18-18.48.84-19.11-1.77,2.89-10.97,12.77-17.76,19.58-26.2,16.54-20.5,33.72-44.7,45.42-68.31,2.25-4.54,8.23-15.42,6.9-20.02-.95-3.27-5.47-4.15-7.53-1.38-10.13,22.96-23.59,44.12-37.13,65.12-1.54-.67-1.77-5.53-2.02-7.25-12.03-81.97,22.46-161.67,74.03-223.25-4.54-25.37-19.43-46.27-40.19-61.19-1.16-4.52,9.93-11.13,13.38-12.57,24.63-10.32,63.66-3.81,89.31,1.82,6.93,1.52,33.97,10.52,37.62,10.34,5.79-.27,22.88-6.81,31.05-8.34,35.65-6.69,73.65-5.38,108.67,4.34,63.99,17.76,124.4,69.27,114.55,141.89Z" fill="#999"/><path d="M515.26,320.62c-6.14-3.41-35.24-2.75-43.6-2.29-17.13.94-80.83,7.54-92.75,15.49-3.03,2.02-13.17,14.34-14.38,14.03-11.04-12.37-14.48-41.83-5.29-55.5,1.87-2.78,17.9-6.53,22.21-7.41,30.45-6.2,61.53-1.39,91.88-7.61,37.44-7.67,58.73-30.69,43.13-69.48-7.86-19.55-25.29-31.01-44.23-38.37,10.6-50.8-18.46-98.29-58.72-126.61C368.31,11.08,309.11.44,254.44,6.53l-1.1-4.41c-16.18-1.09-32.39,2.6-46.95,9.49-.13,1.04-.29,2.62-.45,4.62-7.79-.95-24.95-7.33-33.29-9.13C144.27.97,84.49-8.43,62.74,15.3c-3.48,3.8-9.63,13.51-5.67,18.31,1.63,1.97,12.42,7.42,16.09,10.69,11.66,10.38,21.89,28.18,24.07,43.71C41.44,155.06,9.19,242.96,27.06,330.64c-5.98,12.89-37.86,34.21-23.27,49.97,5.91,6.39,31.46-1.97,34.95,2.23,26.62,83.45,96.71,160.53,177.67,194.14,4.67,1.94,29.88,10.23,31.09,11.56,2.97,3.28-.36,15.31-.55,20.15-1.17,29.08,8.46,55.31,31.23,73.85,5.47,4.46,23.68,16.04,30.35,14.04,8.01-2.4-3.45-12.12-4.44-17-6.46-31.87,33.11-53.84,18.34-85.61,26.27,4.32,45.85-25.75,68.45-28.33,7.09-.81,24.99,3.14,20.99-10.27-1.09-3.66-18.86-14.3-23.11-16.28-19.82-9.27-46.45-10.95-67.64-6.05-24.77,5.73-35.24,22.46-60.9,4.5-47.11-32.98-41.02-104.24-17.77-149.94,2.01-3.96,15.92-28.35,19.2-27.66,14.36,19.03,34.01,34.59,57.51,40.43-9.25,15.95-28.49,23.14-26.24,44.3,1.45,13.64,11.94,15.44,23.45,15.91,24.84,1,87.96-6.54,110.33-16.6,14.01-6.3,44.21-37.25,55.38-49.6,9.19-10.16,37.36-45.19,39.07-57.18.7-4.88-1.31-14.03-5.87-16.57ZM230.38,77.79v17.9s-3.39-.68-5.78-.68-5.78.68-5.78.68v-17.9h11.56ZM227,112.56c12.58,0,22.79,10.22,22.79,22.83s-10.2,22.83-22.79,22.83-22.79-10.22-22.79-22.83,10.2-22.83,22.79-22.83ZM27.83,373.05c-3.29.18-18.48.84-19.11-1.77,2.89-10.97,12.77-17.76,19.58-26.2,16.54-20.5,33.72-44.7,45.42-68.31,2.25-4.54,8.23-15.42,6.9-20.02-.95-3.27-5.47-4.15-7.53-1.38-10.13,22.96-23.59,44.12-37.13,65.12-1.54-.67-1.77-5.53-2.02-7.25-12.03-81.97,22.46-161.67,74.03-223.25-4.54-25.37-19.43-46.27-40.19-61.19-1.16-4.52,9.93-11.13,13.38-12.57,24.63-10.32,63.66-3.81,89.31,1.82,5.93,1.3,26.58,8.07,34.7,9.89-1.02,18.51-1.68,45.31.95,48.38,1.25,1.45,4.04,1.66,4.04,1.66l-.37,19.86c-48.22,28.99-11.31,98.05,38.83,72.77,2.36.44,9.81,13.08,14.06,15.38,6.68,3.62,25.5,5.69,29.73,10.22,1.79,1.92,2.08,4.49,4.71,6.86,12.64,11.42,40.65,5.59,29.75-11.92-5.55-8.92-18.95-10.04-28.2-7.57-1.95.52-2.7,2.77-5.49,2.49-2.16-.22-25.82-7.88-27.01-8.84-.92-.74-9.15-11.04-9.35-11.76-.86-3.09,5.22-8.87,6.91-12.68,10.2-22.93-.54-48.04-23.87-55.9l-.05-18.41c4.93-1.63,5.12-2.98,6.07-7.8,3.37-17.03,4.77-34.83,7.03-52.79,31.54-4.05,64.36-1.97,94.9,6.51,63.99,17.76,124.4,69.27,114.55,141.89-17.85-5.49-40.57-8.06-58.81-3.61-6.47,1.58-23.06,6.59-17.55,15.48,3.71,2.34,17.42-5.06,22.52-6.12,35.64-7.39,101.21,13.22,101.95,57.69-35.59,6.5-73.86,1.46-107.71-10.92-12.4-4.53-30.64-12.96-39.93-22.4-3.94-4-5.88-9.33-9.43-13.55-14.51-1.38-6.04,12.31-.93,18.44,12.81,15.37,43.03,27.7,62.04,33.09,30.2,8.55,63.92,12.21,94.85,6.28-3.59,15.9-22.82,22.73-37.13,25.74-36.79,7.74-75.81-1.19-111.54,12.54-.53-4.67-4.11-9.53-6.77-13.47-33.77-49.93-109.01-65.67-157.78-28.12-4.08-9.54-7.54-25.17-17.63-30.46-6.68-3.5-11.47,1.94-7,6.98,4.78,5.38,7.19,5.06,10.7,13.38,35.84,84.78-87.32,142.19-154.39,145.81ZM132.73,510.83c-5.78-4.84-13.4-12.9-18.6-18.58-29.22-31.93-52.46-69.84-66.09-111.05.73-1.26,1.56-1.25,2.75-1.58,9.25-2.57,19.91-3.5,29.76-6.32,12.12-3.47,23.72-8.39,35.24-13.41-11.18,51.76-5.43,106.86,20.78,153.12-2.05.48-2.6-1.14-3.83-2.17ZM250.83,542.53c33.94,27.65,49.86.29,83.02-2.21,22.08-1.66,44.81,1.35,62.9,14.81-4.73,1.73-9.85,1.44-14.69,2.79-18.28,5.09-39.36,31.07-58.85,27.03-4.32-.9-8.57-7.61-12.87-4.71-5.72,3.86,4.31,17.73,5.26,23.27,2.81,16.4-8.12,27.37-14.14,41.12-1.3,2.98-6.37,15.49-6.37,17.69v19.14c-15.25-6.64-27.86-22.6-33.63-38-4.87-13.02-5.1-24.25-4.62-38,.21-6.06,4.13-19.24-.59-24.6-1.4-1.58-28.15-9.46-33.3-11.53-41.64-16.76-70.6-39.07-87.99-81.51-17.14-41.85-20.21-91.19-6.54-134.46,28.66-17.39,66.57-53.11,70.35-88.21.51-4.72-1.77-14.2-.44-16.85.67-1.34,11.2-8.37,13.34-9.62,49.48-29.01,114.69-5.74,141.36,43-25.54,10.91-50.25,24.12-71.57,42.14-58.67,49.57-100.72,161.61-30.62,218.71ZM267.77,350.66c5.7-4.45,9.89-10.46,15.28-15.4,18.07-16.59,41.74-30.89,64.51-39.9-6.58,20.67-2.9,43.79,10.73,60.71l-33.75,37.26c-23.22-6.82-44.82-21.24-56.77-42.67ZM434.42,347.9c15.42-.69,30.74-3.07,46.09-4.31,1.6-.13,3.19.83,5.04.68,7.18-.56,15-2.49,22.17-3.01,1.47-.11,2.15-.06,1.63,1.64-.98,3.21-15.02,21.62-18.14,25.61-19.5,24.94-53.88,63.77-84.6,71.77-30.1,7.85-63.01,10.07-94.03,10.37l50.13-58.77c.89-3.89-1.99-6.34-5.79-5.79l-55.27,59.1,1.69-10.88c24.57-26.42,46.29-55.87,71-82.1,7.49-7.96,10.27-10.77,21.1-13.89,21.21-6.11,91.78-14.56,111.81-9.67,1.58.39,3.9.92,4.31,2.78-9.42,2.04-79.15,5.34-81.52,8.69-2.06,2.92.38,8.22,4.39,7.78Z"/><path d="M295.08,681.47c-15.25-6.64-27.86-22.6-33.63-38-4.87-13.02-5.1-24.25-4.62-38,.21-6.06,4.13-19.24-.59-24.6-1.4-1.58-28.15-9.46-33.3-11.53-41.64-16.76-70.6-39.07-87.99-81.51-17.14-41.85-20.21-91.19-6.54-134.46,28.66-17.39,66.57-53.11,70.35-88.21.51-4.72-1.77-14.2-.44-16.85.67-1.34,11.2-8.37,13.34-9.62,49.48-29.01,114.69-5.74,141.36,43-25.54,10.91-50.25,24.12-71.57,42.14-58.67,49.57-100.72,161.61-30.62,218.71,33.94,27.65,49.86.29,83.02-2.21,22.08-1.66,44.81,1.35,62.9,14.81-4.73,1.73-9.85,1.44-14.69,2.79-18.28,5.09-39.36,31.07-58.85,27.03-4.32-.9-8.57-7.61-12.87-4.71-5.72,3.86,4.31,17.73,5.26,23.28,2.81,16.4-8.12,27.37-14.14,41.12-1.3,2.98-6.37,15.49-6.37,17.69v19.14Z" fill="#d4d4d4"/><path d="M115.78,359.89c-11.18,51.76-5.43,106.86,20.78,153.12-2.05.48-2.6-1.14-3.83-2.17-5.78-4.84-13.4-12.9-18.6-18.58-29.22-31.93-52.46-69.84-66.09-111.05.73-1.26,1.56-1.25,2.75-1.58,9.25-2.57,19.91-3.5,29.76-6.32,12.12-3.47,23.72-8.39,35.24-13.41Z" fill="#999"/><path d="M347.56,295.35c-6.58,20.67-2.9,43.79,10.73,60.71l-33.75,37.26c-23.22-6.82-44.82-21.24-56.77-42.67,5.7-4.45,9.89-10.46,15.28-15.4,18.07-16.59,41.74-30.89,64.51-39.9Z" fill="#999"/><path d="M511.55,331.43c-9.42,2.04-79.15,5.34-81.52,8.69-2.06,2.92.38,8.22,4.39,7.78,15.42-.69,30.74-3.07,46.09-4.31,1.6-.13,3.19.83,5.04.68,7.18-.56,15-2.49,22.17-3.01,1.47-.11,2.15-.06,1.63,1.64-.98,3.21-15.02,21.62-18.14,25.61-19.5,24.94-53.88,63.77-84.6,71.77-30.1,7.85-63.01,10.07-94.03,10.37l50.13-58.77c.89-3.89-1.99-6.34-5.79-5.79l-55.27,59.1,1.69-10.88c24.57-26.42,46.29-55.87,71-82.1,7.49-7.96,10.27-10.77,21.1-13.89,21.21-6.11,91.78-14.56,111.81-9.67,1.58.39,3.9.92,4.31,2.78ZM412.64,342.94c-3.73-.2-12.25.94-15.87,2.18-4.98,1.69-24.17,18.36-23.81,22.78l1.37,2.93c6.34,5.62,17.75-13.68,23.84-16.65,5.27-2.56,12.7-1.68,18.31-3.55,2.66-4.13,1.14-7.42-3.84-7.68ZM424.93,377.66c-14.73,1.85-36.35,22.19-27.53,37.92,9.84,17.56,46.86-3.43,45.35-25.66-.66-9.75-8.96-13.37-17.81-12.26Z" fill="#d4d4d4"/><path d="M424.93,377.66c8.85-1.11,17.15,2.51,17.81,12.26,1.52,22.23-35.5,43.22-45.35,25.66-8.82-15.73,12.81-36.07,27.53-37.92ZM405.66,411.13c9.25,4.63,22.02-5.76,25.94-13.65,1.46-2.95,3.16-6.28.72-9.18-7.67-6.73-31.27,12.11-26.65,22.83Z"/><path d="M412.64,342.94c4.98.26,6.5,3.56,3.84,7.68-5.61,1.88-13.04.99-18.31,3.55-6.09,2.97-17.5,22.27-23.84,16.65l-1.37-2.93c-.36-4.42,18.84-21.09,23.81-22.78,3.62-1.23,12.15-2.37,15.87-2.18Z"/><path d="M405.66,411.13c-4.62-10.72,18.98-29.56,26.65-22.83,2.44,2.9.75,6.23-.72,9.18-3.91,7.89-16.69,18.27-25.94,13.65Z" fill="#d4d4d4"/><path d="M335.53,159.71c-16.3-3.3-28.09,8.71-43.16-3.31-22.61-18.04-4.89-47.03,22.4-39.92,10.25,2.67,20.75,7.24,20.75,24.08v19.14ZM300.54,125.81c-9.16,1.99-11.3,11.25-7.4,18.89,1.2,2.35,7.44,8.59,6.1,2.65-.93-4.12-3.62-7.55-3.05-12.16.51-4.14,4.77-5.17,4.35-9.39ZM324.29,132.7c0-3.48-2.82-6.3-6.3-6.3s-6.3,2.82-6.3,6.3,2.82,6.3,6.3,6.3,6.3-2.82,6.3-6.3Z"/><circle cx="317.99" cy="132.7" r="6.3" fill="#fff"/><path d="M300.54,125.81c.42,4.22-3.83,5.25-4.35,9.39-.57,4.61,2.12,8.04,3.05,12.16,1.34,5.93-4.9-.3-6.1-2.65-3.89-7.64-1.76-16.91,7.4-18.89Z" fill="#fff"/></g><path d="M592.41,311.39v-159.38c0-6.5,5.2-11.7,11.18-11.7h50.44c40.56,0,64.22,21.84,64.22,57.72,0,46.02-29.9,60.84-64.48,60.84h-39.26v52.52c0,6.24-4.68,11.44-10.92,11.44s-11.18-5.2-11.18-11.44ZM614.51,233.92h39.52c29.64,0,41.86-11.96,41.86-35.1,0-21.84-14.56-33.28-40.82-33.28h-40.56v68.38Z" fill="#d4d4d4"/><path d="M754.65,311.91v-106.08h-6.76c-6.5,0-12.22-5.2-12.22-11.96s5.2-11.96,11.7-11.96h20.54c4.68,0,8.32,3.64,8.32,8.58v121.42c0,5.98-4.68,10.92-10.92,10.92s-10.66-4.94-10.66-10.92ZM748.15,150.72c0-9.1,5.2-15.34,15.6-15.34s15.34,6.5,15.34,15.34-4.94,14.82-15.34,14.82-15.6-6.24-15.6-14.82Z" fill="#d4d4d4"/><path d="M815.49,362.61v-139.1l-1.82-33.28c-.26-5.98,4.16-10.66,10.14-10.66s10.14,4.16,10.14,9.1l1.3,29.12h1.56c5.46-27.04,26.52-39.26,49.92-39.26,30.42.26,56.94,17.94,56.94,70.98s-27.56,73.06-58.24,73.06c-21.84,0-40.82-13.26-47.32-38.74h-1.56v78.78c0,5.72-4.68,10.4-10.4,10.4s-10.66-4.68-10.66-10.4ZM922.35,249.78c0-28.86-13.78-46.8-42.38-46.8-34.84,0-44.2,24.96-44.2,47.84s11.7,47.06,45.24,47.06c28.34,0,41.34-20.54,41.34-48.1Z" fill="#d4d4d4"/><path d="M1092.38,289.3c0,15.86-28.6,33.54-59.02,33.54-41.34,0-67.34-24.96-67.34-72.54s26.78-71.5,66.3-71.5,62.92,22.88,62.92,62.4c0,13.26-7.02,18.2-17.94,18.2h-89.44c2.08,27.82,23.14,39.78,45.5,39.78,19.5,0,29.12-7.02,35.88-12.48,5.2-4.16,8.32-7.54,13.78-7.54,4.94,0,9.36,3.64,9.36,10.14ZM987.61,242.5l86.32-2.34c.26-23.92-14.82-38.74-41.6-38.74-21.06,0-42.9,10.92-44.72,41.08Z" fill="#d4d4d4"/><path d="M1124.62,311.91v-99.06l-1.56-22.62c-.26-5.98,4.42-10.92,10.4-10.92,5.46,0,9.88,4.42,10.14,9.88l1.04,26.52h1.56c5.98-22.1,20.02-36.14,35.62-36.14,7.28,0,11.96,5.98,11.96,14.04,0,7.28-4.94,15.08-13.26,15.08-18.98,1.04-34.06,15.34-34.06,29.9v73.32c0,5.98-4.94,10.92-10.92,10.92s-10.92-4.94-10.92-10.92Z" fill="#d4d4d4"/><path d="M592.41,521.39v-153.14c0-12.48,6.76-21.06,18.98-21.06,10.14,0,15.86,6.5,18.72,15.86l50.7,141.7,50.18-141.7c3.12-8.84,8.84-15.86,18.98-15.86,11.96,0,18.98,8.84,18.98,20.02v154.18c0,6.24-4.94,11.44-10.92,11.44-6.5,0-11.18-5.2-11.18-11.44v-138.84h-.52l-50.18,138.84c-2.08,6.76-7.8,11.44-15.34,11.44s-13.52-4.42-15.86-10.92l-50.18-139.36h-.26v138.84c0,6.24-4.68,11.44-10.92,11.44s-11.18-5.2-11.18-11.44Z" fill="#d4d4d4"/><path d="M800.67,460.56c0-42.38,22.36-72.02,66.3-72.02s66.3,29.64,66.3,71.76-22.36,72.28-66.3,72.28-66.3-29.9-66.3-72.02ZM912.21,460.3c0-33.28-17.68-48.1-45.24-48.1s-45.24,14.82-45.24,48.1,17.68,48.36,45.24,48.36,45.24-14.82,45.24-48.36Z" fill="#d4d4d4"/><path d="M963.43,521.91v-99.06l-1.56-22.62c-.26-5.98,4.42-10.92,10.4-10.92,5.46,0,9.88,4.42,10.14,9.88l1.04,26.52h1.56c5.98-22.1,20.02-36.14,35.62-36.14,7.28,0,11.96,5.98,11.96,14.04,0,7.28-4.94,15.08-13.26,15.08-18.98,1.04-34.06,15.34-34.06,29.9v73.32c0,5.98-4.94,10.92-10.92,10.92s-10.92-4.94-10.92-10.92Z" fill="#d4d4d4"/><path d="M1148.29,408.04l-.78,3.12c10.4,4.16,18.2,13.26,18.2,27.04,0,31.98-27.82,44.72-59.28,44.72-12.22,0-23.4-1.82-31.98-5.2-4.42,2.08-8.32,6.5-8.32,12.22,0,7.02,5.72,11.96,16.9,11.96h50.44c22.88,0,42.64,7.54,42.64,35.36,0,24.7-16.38,45.76-71.24,45.76-47.06,0-65.78-10.92-65.78-36.4,0-16.64,14.04-26.78,29.38-27.3v-2.08c-13.78-1.82-21.84-9.62-21.84-21.84,0-11.18,7.28-18.98,19.5-21.32-13.52-6.76-20.54-20.8-20.54-37.44,0-30.42,23.66-48.1,59.28-48.1,11.7,0,25.22,3.12,32.5,5.72l25.74-6.76c9.62-2.86,17.16,2.6,17.16,11.18,0,7.28-5.72,12.74-14.56,11.7l-17.42-2.34ZM1076.01,524.25c-7.54,1.3-16.38,5.98-16.38,16.12,0,15.6,17.42,20.02,44.98,20.02,33.02,0,50.18-8.06,50.18-22.36s-15.6-13.78-25.48-13.78h-53.3ZM1145.43,436.64c0-18.98-18.72-26-39.52-26-23.4,0-40.3,5.72-40.3,26.26,0,18.46,14.82,24.7,39.52,24.7,13.78,0,40.3-1.56,40.3-24.96Z" fill="#d4d4d4"/><path d="M1193.53,488.38c0-23.92,16.38-41.08,52.26-41.08,17.94,0,34.32,7.54,41.6,18.46h1.56v-23.14c0-20.8-16.12-30.16-37.44-30.16s-27.3,6.76-30.68,13.52c-2.86,5.72-3.9,11.7-11.44,11.7-6.5,0-10.4-3.9-10.4-11.18,0-20.8,22.1-37.7,54.08-37.7,34.84,0,57.46,14.56,57.46,52.52v60.06l2.34,18.72c.78,6.24-4.16,11.96-10.66,11.96-5.2,0-9.88-4.16-10.66-9.62l-1.82-16.9h-1.3c-7.54,16.9-24.18,26.26-46.8,26.26-28.08,0-48.1-14.04-48.1-43.42ZM1289.99,487.08c0-12.74-17.68-20.28-38.74-20.28s-36.4,5.46-36.4,21.32c0,16.9,15.86,21.84,35.88,21.84s39.26-9.1,39.26-22.88Z" fill="#d4d4d4"/><path d="M1346.67,521.91v-93.86l-1.56-27.82c0-5.98,4.16-10.92,10.4-10.92,5.46,0,10.14,4.42,10.4,9.88l.52,24.18h1.56c6.24-24.96,27.82-34.84,48.1-34.84,27.04,0,46.28,15.86,46.28,48.36v85.02c0,5.98-4.94,10.92-10.92,10.92s-10.66-4.94-10.66-10.92v-80.34c0-18.2-11.7-28.86-31.72-28.86-23.14,0-40.82,16.64-40.82,29.12v80.08c0,5.98-4.68,10.92-10.66,10.92s-10.92-4.94-10.92-10.92Z" fill="#d4d4d4"/></g></svg>