<?xml version="1.0" encoding="UTF-8"?><svg id="Layer_2" xmlns="http://www.w3.org/2000/svg" width="1462.37" height="696.81" viewBox="0 0 1462.37 696.81"><g id="Layer_1-2"><path d="M592.41,311.39v-159.38c0-6.5,5.2-11.7,11.18-11.7h50.44c40.56,0,64.22,21.84,64.22,57.72,0,46.02-29.9,60.84-64.48,60.84h-39.26v52.52c0,6.24-4.68,11.44-10.92,11.44s-11.18-5.2-11.18-11.44ZM614.51,233.92h39.52c29.64,0,41.86-11.96,41.86-35.1,0-21.84-14.56-33.28-40.82-33.28h-40.56v68.38Z"/><path d="M754.65,311.91v-106.08h-6.76c-6.5,0-12.22-5.2-12.22-11.96s5.2-11.96,11.7-11.96h20.54c4.68,0,8.32,3.64,8.32,8.58v121.42c0,5.98-4.68,10.92-10.92,10.92s-10.66-4.94-10.66-10.92ZM748.15,150.72c0-9.1,5.2-15.34,15.6-15.34s15.34,6.5,15.34,15.34-4.94,14.82-15.34,14.82-15.6-6.24-15.6-14.82Z"/><path d="M815.49,362.61v-139.1l-1.82-33.28c-.26-5.98,4.16-10.66,10.14-10.66s10.14,4.16,10.14,9.1l1.3,29.12h1.56c5.46-27.04,26.52-39.26,49.92-39.26,30.42.26,56.94,17.94,56.94,70.98s-27.56,73.06-58.24,73.06c-21.84,0-40.82-13.26-47.32-38.74h-1.56v78.78c0,5.72-4.68,10.4-10.4,10.4s-10.66-4.68-10.66-10.4ZM922.35,249.78c0-28.86-13.78-46.8-42.38-46.8-34.84,0-44.2,24.96-44.2,47.84s11.7,47.06,45.24,47.06c28.34,0,41.34-20.54,41.34-48.1Z"/><path d="M1092.38,289.3c0,15.86-28.6,33.54-59.02,33.54-41.34,0-67.34-24.96-67.34-72.54s26.78-71.5,66.3-71.5,62.92,22.88,62.92,62.4c0,13.26-7.02,18.2-17.94,18.2h-89.44c2.08,27.82,23.14,39.78,45.5,39.78,19.5,0,29.12-7.02,35.88-12.48,5.2-4.16,8.32-7.54,13.78-7.54,4.94,0,9.36,3.64,9.36,10.14ZM987.61,242.5l86.32-2.34c.26-23.92-14.82-38.74-41.6-38.74-21.06,0-42.9,10.92-44.72,41.08Z"/><path d="M1124.62,311.91v-99.06l-1.56-22.62c-.26-5.98,4.42-10.92,10.4-10.92,5.46,0,9.88,4.42,10.14,9.88l1.04,26.52h1.56c5.98-22.1,20.02-36.14,35.62-36.14,7.28,0,11.96,5.98,11.96,14.04,0,7.28-4.94,15.08-13.26,15.08-18.98,1.04-34.06,15.34-34.06,29.9v73.32c0,5.98-4.94,10.92-10.92,10.92s-10.92-4.94-10.92-10.92Z"/><path d="M592.41,521.39v-153.14c0-12.48,6.76-21.06,18.98-21.06,10.14,0,15.86,6.5,18.72,15.86l50.7,141.7,50.18-141.7c3.12-8.84,8.84-15.86,18.98-15.86,11.96,0,18.98,8.84,18.98,20.02v154.18c0,6.24-4.94,11.44-10.92,11.44-6.5,0-11.18-5.2-11.18-11.44v-138.84h-.52l-50.18,138.84c-2.08,6.76-7.8,11.44-15.34,11.44s-13.52-4.42-15.86-10.92l-50.18-139.36h-.26v138.84c0,6.24-4.68,11.44-10.92,11.44s-11.18-5.2-11.18-11.44Z"/><path d="M800.67,460.56c0-42.38,22.36-72.02,66.3-72.02s66.3,29.64,66.3,71.76-22.36,72.28-66.3,72.28-66.3-29.9-66.3-72.02ZM912.21,460.3c0-33.28-17.68-48.1-45.24-48.1s-45.24,14.82-45.24,48.1,17.68,48.36,45.24,48.36,45.24-14.82,45.24-48.36Z"/><path d="M963.43,521.91v-99.06l-1.56-22.62c-.26-5.98,4.42-10.92,10.4-10.92,5.46,0,9.88,4.42,10.14,9.88l1.04,26.52h1.56c5.98-22.1,20.02-36.14,35.62-36.14,7.28,0,11.96,5.98,11.96,14.04,0,7.28-4.94,15.08-13.26,15.08-18.98,1.04-34.06,15.34-34.06,29.9v73.32c0,5.98-4.94,10.92-10.92,10.92s-10.92-4.94-10.92-10.92Z"/><path d="M1148.29,408.04l-.78,3.12c10.4,4.16,18.2,13.26,18.2,27.04,0,31.98-27.82,44.72-59.28,44.72-12.22,0-23.4-1.82-31.98-5.2-4.42,2.08-8.32,6.5-8.32,12.22,0,7.02,5.72,11.96,16.9,11.96h50.44c22.88,0,42.64,7.54,42.64,35.36,0,24.7-16.38,45.76-71.24,45.76-47.06,0-65.78-10.92-65.78-36.4,0-16.64,14.04-26.78,29.38-27.3v-2.08c-13.78-1.82-21.84-9.62-21.84-21.84,0-11.18,7.28-18.98,19.5-21.32-13.52-6.76-20.54-20.8-20.54-37.44,0-30.42,23.66-48.1,59.28-48.1,11.7,0,25.22,3.12,32.5,5.72l25.74-6.76c9.62-2.86,17.16,2.6,17.16,11.18,0,7.28-5.72,12.74-14.56,11.7l-17.42-2.34ZM1076.01,524.25c-7.54,1.3-16.38,5.98-16.38,16.12,0,15.6,17.42,20.02,44.98,20.02,33.02,0,50.18-8.06,50.18-22.36s-15.6-13.78-25.48-13.78h-53.3ZM1145.43,436.64c0-18.98-18.72-26-39.52-26-23.4,0-40.3,5.72-40.3,26.26,0,18.46,14.82,24.7,39.52,24.7,13.78,0,40.3-1.56,40.3-24.96Z"/><path d="M1193.53,488.38c0-23.92,16.38-41.08,52.26-41.08,17.94,0,34.32,7.54,41.6,18.46h1.56v-23.14c0-20.8-16.12-30.16-37.44-30.16s-27.3,6.76-30.68,13.52c-2.86,5.72-3.9,11.7-11.44,11.7-6.5,0-10.4-3.9-10.4-11.18,0-20.8,22.1-37.7,54.08-37.7,34.84,0,57.46,14.56,57.46,52.52v60.06l2.34,18.72c.78,6.24-4.16,11.96-10.66,11.96-5.2,0-9.88-4.16-10.66-9.62l-1.82-16.9h-1.3c-7.54,16.9-24.18,26.26-46.8,26.26-28.08,0-48.1-14.04-48.1-43.42ZM1289.99,487.08c0-12.74-17.68-20.28-38.74-20.28s-36.4,5.46-36.4,21.32c0,16.9,15.86,21.84,35.88,21.84s39.26-9.1,39.26-22.88Z"/><path d="M1346.67,521.91v-93.86l-1.56-27.82c0-5.98,4.16-10.92,10.4-10.92,5.46,0,10.14,4.42,10.4,9.88l.52,24.18h1.56c6.24-24.96,27.82-34.84,48.1-34.84,27.04,0,46.28,15.86,46.28,48.36v85.02c0,5.98-4.94,10.92-10.92,10.92s-10.66-4.94-10.66-10.92v-80.34c0-18.2-11.7-28.86-31.72-28.86-23.14,0-40.82,16.64-40.82,29.12v80.08c0,5.98-4.68,10.92-10.66,10.92s-10.92-4.94-10.92-10.92Z"/><ellipse cx="227" cy="135.4" rx="22.79" ry="22.83"/><path d="M230.38,95.68v-17.9h-11.56v17.9s3.39-.68,5.78-.68,5.78.68,5.78.68Z"/><path d="M515.26,320.62c-6.14-3.41-35.24-2.75-43.6-2.29-17.13.94-80.83,7.54-92.75,15.49-3.03,2.02-13.17,14.34-14.38,14.03-11.03-12.37-14.48-41.83-5.29-55.5,1.87-2.78,17.9-6.53,22.21-7.41,30.45-6.2,61.53-1.39,91.88-7.61,37.44-7.67,58.73-30.69,43.13-69.48-7.86-19.55-25.29-31.01-44.23-38.37,10.6-50.8-18.46-98.29-58.72-126.61C368.31,11.08,309.11.45,254.44,6.54v.04c-3.31,21.76-4.49,43.48-8.57,64.08-.96,4.82-1.15,6.17-6.07,7.8l.05,18.41c23.33,7.86,34.07,32.97,23.87,55.9-1.7,3.81-7.77,9.59-6.91,12.68.2.72,8.44,11.02,9.35,11.76,1.19.96,24.85,8.62,27.01,8.84,2.79.28,3.54-1.97,5.49-2.49,9.25-2.47,22.65-1.35,28.2,7.57,10.89,17.51-17.11,23.34-29.75,11.92-2.63-2.37-2.92-4.95-4.71-6.86-4.22-4.53-23.04-6.6-29.73-10.22-4.25-2.3-11.7-14.94-14.06-15.38-50.14,25.28-87.05-43.78-38.83-72.77l.37-19.86s-2.79-.21-4.04-1.66c-3.28-3.83-1.44-44.55-.17-60.09-7.78-.95-24.94-7.32-33.29-9.13C144.27.97,84.49-8.43,62.74,15.3c-3.48,3.8-9.63,13.51-5.67,18.31,1.63,1.97,12.42,7.42,16.09,10.69,11.66,10.38,21.89,28.18,24.07,43.71C41.44,155.06,9.19,242.96,27.06,330.64c-5.98,12.89-37.86,34.21-23.27,49.97,5.91,6.39,31.46-1.97,34.95,2.23,26.62,83.45,96.71,160.53,177.67,194.14,4.67,1.94,29.88,10.23,31.09,11.56,2.97,3.28-.36,15.31-.55,20.15-1.17,29.08,8.46,55.31,31.23,73.85,5.47,4.46,23.68,16.04,30.35,14.04,8.01-2.4-3.45-12.12-4.44-17-6.46-31.87,33.11-53.84,18.34-85.61,26.27,4.32,45.85-25.75,68.45-28.33,7.09-.81,24.99,3.14,20.99-10.27-1.09-3.66-18.86-14.3-23.11-16.28-19.82-9.27-46.45-10.95-67.64-6.05-24.77,5.73-35.24,22.46-60.9,4.5-47.11-32.98-41.02-104.24-17.77-149.94,2.01-3.96,15.92-28.35,19.2-27.66,14.36,19.03,34.01,34.59,57.51,40.43-9.25,15.95-28.49,23.14-26.24,44.3,1.45,13.64,11.94,15.44,23.45,15.91,24.84,1,87.96-6.54,110.33-16.6,14.01-6.3,44.21-37.25,55.38-49.6,9.19-10.16,37.36-45.19,39.07-57.18.7-4.88-1.31-14.03-5.87-16.57Z"/><path d="M218.83,77.79h11.56v17.9s-3.39-.68-5.78-.68-5.78.68-5.78.68v-17.9ZM227,112.56c12.58,0,22.79,10.22,22.79,22.83s-10.2,22.84-22.79,22.84-22.79-10.22-22.79-22.84,10.2-22.83,22.79-22.83Z"/></g></svg>