<?xml version="1.0" encoding="UTF-8"?><svg id="Layer_2" xmlns="http://www.w3.org/2000/svg" width="1468.37" height="696.81" xmlns:xlink="http://www.w3.org/1999/xlink" viewBox="0 0 1468.37 696.81"><defs><linearGradient id="linear-gradient" x1="655.33" y1="140.32" x2="655.33" y2="322.83" gradientUnits="userSpaceOnUse"><stop offset="0" stop-color="#ffb800"/><stop offset=".33" stop-color="#ffb500"/><stop offset=".52" stop-color="#ffad00"/><stop offset=".65" stop-color="#ffa300"/><stop offset=".9" stop-color="#f70"/></linearGradient><linearGradient id="linear-gradient-2" x1="757.38" y1="135.38" x2="757.38" xlink:href="#linear-gradient"/><linearGradient id="linear-gradient-3" x1="878.66" y1="178.54" x2="878.66" y2="373.01" xlink:href="#linear-gradient"/><linearGradient id="linear-gradient-4" x1="1030.64" y1="178.8" x2="1030.64" xlink:href="#linear-gradient"/><linearGradient id="linear-gradient-5" x1="1158.42" y1="179.32" x2="1158.42" xlink:href="#linear-gradient"/><linearGradient id="linear-gradient-6" x1="680.68" y1="347.2" x2="680.68" y2="532.83" gradientUnits="userSpaceOnUse"><stop offset="0" stop-color="#00f8f8"/><stop offset="1" stop-color="#00bec0"/></linearGradient><linearGradient id="linear-gradient-7" x1="866.97" y1="388.54" x2="866.97" y2="532.58" gradientUnits="userSpaceOnUse"><stop offset="0" stop-color="#00f8f8"/><stop offset="1" stop-color="#00bec0"/></linearGradient><linearGradient id="linear-gradient-8" x1="997.22" y1="389.32" x2="997.22" y2="532.83" xlink:href="#linear-gradient-7"/><linearGradient id="linear-gradient-9" x1="1109.68" y1="386.73" x2="1109.68" y2="583.01" xlink:href="#linear-gradient-7"/><linearGradient id="linear-gradient-10" x1="1253.24" y1="388.8" x2="1253.24" y2="532.05" xlink:href="#linear-gradient-7"/><linearGradient id="linear-gradient-11" x1="1403.74" x2="1403.74" y2="532.83" xlink:href="#linear-gradient-7"/><linearGradient id="linear-gradient-12" x1="354.35" y1="20.9" x2="86.45" y2="484.91" xlink:href="#linear-gradient-7"/><linearGradient id="linear-gradient-13" x1="172.04" y1="261.55" x2="384.63" y2="629.77" gradientUnits="userSpaceOnUse"><stop offset="0" stop-color="#e1faf9"/><stop offset="1" stop-color="#00e6e4"/></linearGradient><linearGradient id="linear-gradient-14" x1="457.87" y1="299.48" x2="355.72" y2="476.41" xlink:href="#linear-gradient"/><linearGradient id="linear-gradient-15" x1="255.58" y1="70.92" x2="203.05" y2="161.92" gradientUnits="userSpaceOnUse"><stop offset="0" stop-color="#ffb800"/><stop offset=".33" stop-color="#ffb500"/><stop offset=".52" stop-color="#ffad00"/><stop offset=".65" stop-color="#ffa300"/><stop offset=".9" stop-color="#f70"/></linearGradient></defs><g id="Layer_1-2"><path d="M592.41,311.39v-159.38c0-6.5,5.2-11.7,11.18-11.7h50.44c40.56,0,64.22,21.84,64.22,57.72,0,46.02-29.9,60.84-64.48,60.84h-39.26v52.52c0,6.24-4.68,11.44-10.92,11.44s-11.18-5.2-11.18-11.44ZM614.51,233.92h39.52c29.64,0,41.86-11.96,41.86-35.1,0-21.84-14.56-33.28-40.82-33.28h-40.56v68.38Z" fill="none" stroke="#8e3d00" stroke-miterlimit="10" stroke-width="12"/><path d="M754.65,311.91v-106.08h-6.76c-6.5,0-12.22-5.2-12.22-11.96s5.2-11.96,11.7-11.96h20.54c4.68,0,8.32,3.64,8.32,8.58v121.42c0,5.98-4.68,10.92-10.92,10.92s-10.66-4.94-10.66-10.92ZM748.15,150.72c0-9.1,5.2-15.34,15.6-15.34s15.34,6.5,15.34,15.34-4.94,14.82-15.34,14.82-15.6-6.24-15.6-14.82Z" fill="none" stroke="#8e3d00" stroke-miterlimit="10" stroke-width="12"/><path d="M815.49,362.61v-139.1l-1.82-33.28c-.26-5.98,4.16-10.66,10.14-10.66s10.14,4.16,10.14,9.1l1.3,29.12h1.56c5.46-27.04,26.52-39.26,49.92-39.26,30.42.26,56.94,17.94,56.94,70.98s-27.56,73.06-58.24,73.06c-21.84,0-40.82-13.26-47.32-38.74h-1.56v78.78c0,5.72-4.68,10.4-10.4,10.4s-10.66-4.68-10.66-10.4ZM922.35,249.78c0-28.86-13.78-46.8-42.38-46.8-34.84,0-44.2,24.96-44.2,47.84s11.7,47.06,45.24,47.06c28.34,0,41.34-20.54,41.34-48.1Z" fill="none" stroke="#8e3d00" stroke-miterlimit="10" stroke-width="12"/><path d="M1092.38,289.3c0,15.86-28.6,33.54-59.02,33.54-41.34,0-67.34-24.96-67.34-72.54s26.78-71.5,66.3-71.5,62.92,22.88,62.92,62.4c0,13.26-7.02,18.2-17.94,18.2h-89.44c2.08,27.82,23.14,39.78,45.5,39.78,19.5,0,29.12-7.02,35.88-12.48,5.2-4.16,8.32-7.54,13.78-7.54,4.94,0,9.36,3.64,9.36,10.14ZM987.61,242.5l86.32-2.34c.26-23.92-14.82-38.74-41.6-38.74-21.06,0-42.9,10.92-44.72,41.08Z" fill="none" stroke="#8e3d00" stroke-miterlimit="10" stroke-width="12"/><path d="M1124.62,311.91v-99.06l-1.56-22.62c-.26-5.98,4.42-10.92,10.4-10.92,5.46,0,9.88,4.42,10.14,9.88l1.04,26.52h1.56c5.98-22.1,20.02-36.14,35.62-36.14,7.28,0,11.96,5.98,11.96,14.04,0,7.28-4.94,15.08-13.26,15.08-18.98,1.04-34.06,15.34-34.06,29.9v73.32c0,5.98-4.94,10.92-10.92,10.92s-10.92-4.94-10.92-10.92Z" fill="none" stroke="#8e3d00" stroke-miterlimit="10" stroke-width="12"/><path d="M592.41,521.39v-153.14c0-12.48,6.76-21.06,18.98-21.06,10.14,0,15.86,6.5,18.72,15.86l50.7,141.7,50.18-141.7c3.12-8.84,8.84-15.86,18.98-15.86,11.96,0,18.98,8.84,18.98,20.02v154.18c0,6.24-4.94,11.44-10.92,11.44-6.5,0-11.18-5.2-11.18-11.44v-138.84h-.52l-50.18,138.84c-2.08,6.76-7.8,11.44-15.34,11.44s-13.52-4.42-15.86-10.92l-50.18-139.36h-.26v138.84c0,6.24-4.68,11.44-10.92,11.44s-11.18-5.2-11.18-11.44Z" fill="none" stroke="#006663" stroke-miterlimit="10" stroke-width="12"/><path d="M800.67,460.56c0-42.38,22.36-72.02,66.3-72.02s66.3,29.64,66.3,71.76-22.36,72.28-66.3,72.28-66.3-29.9-66.3-72.02ZM912.21,460.3c0-33.28-17.68-48.1-45.24-48.1s-45.24,14.82-45.24,48.1,17.68,48.36,45.24,48.36,45.24-14.82,45.24-48.36Z" fill="none" stroke="#006663" stroke-miterlimit="10" stroke-width="12"/><path d="M963.43,521.91v-99.06l-1.56-22.62c-.26-5.98,4.42-10.92,10.4-10.92,5.46,0,9.88,4.42,10.14,9.88l1.04,26.52h1.56c5.98-22.1,20.02-36.14,35.62-36.14,7.28,0,11.96,5.98,11.96,14.04,0,7.28-4.94,15.08-13.26,15.08-18.98,1.04-34.06,15.34-34.06,29.9v73.32c0,5.98-4.94,10.92-10.92,10.92s-10.92-4.94-10.92-10.92Z" fill="none" stroke="#006663" stroke-miterlimit="10" stroke-width="12"/><path d="M1148.29,408.04l-.78,3.12c10.4,4.16,18.2,13.26,18.2,27.04,0,31.98-27.82,44.72-59.28,44.72-12.22,0-23.4-1.82-31.98-5.2-4.42,2.08-8.32,6.5-8.32,12.22,0,7.02,5.72,11.96,16.9,11.96h50.44c22.88,0,42.64,7.54,42.64,35.36,0,24.7-16.38,45.76-71.24,45.76-47.06,0-65.78-10.92-65.78-36.4,0-16.64,14.04-26.78,29.38-27.3v-2.08c-13.78-1.82-21.84-9.62-21.84-21.84,0-11.18,7.28-18.98,19.5-21.32-13.52-6.76-20.54-20.8-20.54-37.44,0-30.42,23.66-48.1,59.28-48.1,11.7,0,25.22,3.12,32.5,5.72l25.74-6.76c9.62-2.86,17.16,2.6,17.16,11.18,0,7.28-5.72,12.74-14.56,11.7l-17.42-2.34ZM1076.01,524.25c-7.54,1.3-16.38,5.98-16.38,16.12,0,15.6,17.42,20.02,44.98,20.02,33.02,0,50.18-8.06,50.18-22.36s-15.6-13.78-25.48-13.78h-53.3ZM1145.43,436.64c0-18.98-18.72-26-39.52-26-23.4,0-40.3,5.72-40.3,26.26,0,18.46,14.82,24.7,39.52,24.7,13.78,0,40.3-1.56,40.3-24.96Z" fill="none" stroke="#006663" stroke-miterlimit="10" stroke-width="12"/><path d="M1193.53,488.38c0-23.92,16.38-41.08,52.26-41.08,17.94,0,34.32,7.54,41.6,18.46h1.56v-23.14c0-20.8-16.12-30.16-37.44-30.16s-27.3,6.76-30.68,13.52c-2.86,5.72-3.9,11.7-11.44,11.7-6.5,0-10.4-3.9-10.4-11.18,0-20.8,22.1-37.7,54.08-37.7,34.84,0,57.46,14.56,57.46,52.52v60.06l2.34,18.72c.78,6.24-4.16,11.96-10.66,11.96-5.2,0-9.88-4.16-10.66-9.62l-1.82-16.9h-1.3c-7.54,16.9-24.18,26.26-46.8,26.26-28.08,0-48.1-14.04-48.1-43.42ZM1289.99,487.08c0-12.74-17.68-20.28-38.74-20.28s-36.4,5.46-36.4,21.32c0,16.9,15.86,21.84,35.88,21.84s39.26-9.1,39.26-22.88Z" fill="none" stroke="#006663" stroke-miterlimit="10" stroke-width="12"/><path d="M1346.67,521.91v-93.86l-1.56-27.82c0-5.98,4.16-10.92,10.4-10.92,5.46,0,10.14,4.42,10.4,9.88l.52,24.18h1.56c6.24-24.96,27.82-34.84,48.1-34.84,27.04,0,46.28,15.86,46.28,48.36v85.02c0,5.98-4.94,10.92-10.92,10.92s-10.66-4.94-10.66-10.92v-80.34c0-18.2-11.7-28.86-31.72-28.86-23.14,0-40.82,16.64-40.82,29.12v80.08c0,5.98-4.68,10.92-10.66,10.92s-10.92-4.94-10.92-10.92Z" fill="none" stroke="#006663" stroke-miterlimit="10" stroke-width="12"/><path d="M592.41,311.39v-159.38c0-6.5,5.2-11.7,11.18-11.7h50.44c40.56,0,64.22,21.84,64.22,57.72,0,46.02-29.9,60.84-64.48,60.84h-39.26v52.52c0,6.24-4.68,11.44-10.92,11.44s-11.18-5.2-11.18-11.44ZM614.51,233.92h39.52c29.64,0,41.86-11.96,41.86-35.1,0-21.84-14.56-33.28-40.82-33.28h-40.56v68.38Z" fill="url(#linear-gradient)"/><path d="M754.65,311.91v-106.08h-6.76c-6.5,0-12.22-5.2-12.22-11.96s5.2-11.96,11.7-11.96h20.54c4.68,0,8.32,3.64,8.32,8.58v121.42c0,5.98-4.68,10.92-10.92,10.92s-10.66-4.94-10.66-10.92ZM748.15,150.72c0-9.1,5.2-15.34,15.6-15.34s15.34,6.5,15.34,15.34-4.94,14.82-15.34,14.82-15.6-6.24-15.6-14.82Z" fill="url(#linear-gradient-2)"/><path d="M815.49,362.61v-139.1l-1.82-33.28c-.26-5.98,4.16-10.66,10.14-10.66s10.14,4.16,10.14,9.1l1.3,29.12h1.56c5.46-27.04,26.52-39.26,49.92-39.26,30.42.26,56.94,17.94,56.94,70.98s-27.56,73.06-58.24,73.06c-21.84,0-40.82-13.26-47.32-38.74h-1.56v78.78c0,5.72-4.68,10.4-10.4,10.4s-10.66-4.68-10.66-10.4ZM922.35,249.78c0-28.86-13.78-46.8-42.38-46.8-34.84,0-44.2,24.96-44.2,47.84s11.7,47.06,45.24,47.06c28.34,0,41.34-20.54,41.34-48.1Z" fill="url(#linear-gradient-3)"/><path d="M1092.38,289.3c0,15.86-28.6,33.54-59.02,33.54-41.34,0-67.34-24.96-67.34-72.54s26.78-71.5,66.3-71.5,62.92,22.88,62.92,62.4c0,13.26-7.02,18.2-17.94,18.2h-89.44c2.08,27.82,23.14,39.78,45.5,39.78,19.5,0,29.12-7.02,35.88-12.48,5.2-4.16,8.32-7.54,13.78-7.54,4.94,0,9.36,3.64,9.36,10.14ZM987.61,242.5l86.32-2.34c.26-23.92-14.82-38.74-41.6-38.74-21.06,0-42.9,10.92-44.72,41.08Z" fill="url(#linear-gradient-4)"/><path d="M1124.62,311.91v-99.06l-1.56-22.62c-.26-5.98,4.42-10.92,10.4-10.92,5.46,0,9.88,4.42,10.14,9.88l1.04,26.52h1.56c5.98-22.1,20.02-36.14,35.62-36.14,7.28,0,11.96,5.98,11.96,14.04,0,7.28-4.94,15.08-13.26,15.08-18.98,1.04-34.06,15.34-34.06,29.9v73.32c0,5.98-4.94,10.92-10.92,10.92s-10.92-4.94-10.92-10.92Z" fill="url(#linear-gradient-5)"/><path d="M592.41,521.39v-153.14c0-12.48,6.76-21.06,18.98-21.06,10.14,0,15.86,6.5,18.72,15.86l50.7,141.7,50.18-141.7c3.12-8.84,8.84-15.86,18.98-15.86,11.96,0,18.98,8.84,18.98,20.02v154.18c0,6.24-4.94,11.44-10.92,11.44-6.5,0-11.18-5.2-11.18-11.44v-138.84h-.52l-50.18,138.84c-2.08,6.76-7.8,11.44-15.34,11.44s-13.52-4.42-15.86-10.92l-50.18-139.36h-.26v138.84c0,6.24-4.68,11.44-10.92,11.44s-11.18-5.2-11.18-11.44Z" fill="url(#linear-gradient-6)"/><path d="M800.67,460.56c0-42.38,22.36-72.02,66.3-72.02s66.3,29.64,66.3,71.76-22.36,72.28-66.3,72.28-66.3-29.9-66.3-72.02ZM912.21,460.3c0-33.28-17.68-48.1-45.24-48.1s-45.24,14.82-45.24,48.1,17.68,48.36,45.24,48.36,45.24-14.82,45.24-48.36Z" fill="url(#linear-gradient-7)"/><path d="M963.43,521.91v-99.06l-1.56-22.62c-.26-5.98,4.42-10.92,10.4-10.92,5.46,0,9.88,4.42,10.14,9.88l1.04,26.52h1.56c5.98-22.1,20.02-36.14,35.62-36.14,7.28,0,11.96,5.98,11.96,14.04,0,7.28-4.94,15.08-13.26,15.08-18.98,1.04-34.06,15.34-34.06,29.9v73.32c0,5.98-4.94,10.92-10.92,10.92s-10.92-4.94-10.92-10.92Z" fill="url(#linear-gradient-8)"/><path d="M1148.29,408.04l-.78,3.12c10.4,4.16,18.2,13.26,18.2,27.04,0,31.98-27.82,44.72-59.28,44.72-12.22,0-23.4-1.82-31.98-5.2-4.42,2.08-8.32,6.5-8.32,12.22,0,7.02,5.72,11.96,16.9,11.96h50.44c22.88,0,42.64,7.54,42.64,35.36,0,24.7-16.38,45.76-71.24,45.76-47.06,0-65.78-10.92-65.78-36.4,0-16.64,14.04-26.78,29.38-27.3v-2.08c-13.78-1.82-21.84-9.62-21.84-21.84,0-11.18,7.28-18.98,19.5-21.32-13.52-6.76-20.54-20.8-20.54-37.44,0-30.42,23.66-48.1,59.28-48.1,11.7,0,25.22,3.12,32.5,5.72l25.74-6.76c9.62-2.86,17.16,2.6,17.16,11.18,0,7.28-5.72,12.74-14.56,11.7l-17.42-2.34ZM1076.01,524.25c-7.54,1.3-16.38,5.98-16.38,16.12,0,15.6,17.42,20.02,44.98,20.02,33.02,0,50.18-8.06,50.18-22.36s-15.6-13.78-25.48-13.78h-53.3ZM1145.43,436.64c0-18.98-18.72-26-39.52-26-23.4,0-40.3,5.72-40.3,26.26,0,18.46,14.82,24.7,39.52,24.7,13.78,0,40.3-1.56,40.3-24.96Z" fill="url(#linear-gradient-9)"/><path d="M1193.53,488.38c0-23.92,16.38-41.08,52.26-41.08,17.94,0,34.32,7.54,41.6,18.46h1.56v-23.14c0-20.8-16.12-30.16-37.44-30.16s-27.3,6.76-30.68,13.52c-2.86,5.72-3.9,11.7-11.44,11.7-6.5,0-10.4-3.9-10.4-11.18,0-20.8,22.1-37.7,54.08-37.7,34.84,0,57.46,14.56,57.46,52.52v60.06l2.34,18.72c.78,6.24-4.16,11.96-10.66,11.96-5.2,0-9.88-4.16-10.66-9.62l-1.82-16.9h-1.3c-7.54,16.9-24.18,26.26-46.8,26.26-28.08,0-48.1-14.04-48.1-43.42ZM1289.99,487.08c0-12.74-17.68-20.28-38.74-20.28s-36.4,5.46-36.4,21.32c0,16.9,15.86,21.84,35.88,21.84s39.26-9.1,39.26-22.88Z" fill="url(#linear-gradient-10)"/><path d="M1346.67,521.91v-93.86l-1.56-27.82c0-5.98,4.16-10.92,10.4-10.92,5.46,0,10.14,4.42,10.4,9.88l.52,24.18h1.56c6.24-24.96,27.82-34.84,48.1-34.84,27.04,0,46.28,15.86,46.28,48.36v85.02c0,5.98-4.94,10.92-10.92,10.92s-10.66-4.94-10.66-10.92v-80.34c0-18.2-11.7-28.86-31.72-28.86-23.14,0-40.82,16.64-40.82,29.12v80.08c0,5.98-4.68,10.92-10.66,10.92s-10.92-4.94-10.92-10.92Z" fill="url(#linear-gradient-11)"/><g id="SPpA5D.tif"><path d="M414.51,234.38c-19.01-5.39-49.23-17.72-62.04-33.09-5.11-6.13-13.58-19.82.93-18.44,3.55,4.22,5.49,9.55,9.43,13.55,9.29,9.44,27.53,17.86,39.93,22.4,33.84,12.38,72.12,17.42,107.71,10.92-.74-44.47-66.31-65.09-101.95-57.69-5.11,1.06-18.81,8.46-22.52,6.12-5.52-8.88,11.07-13.9,17.55-15.48,18.24-4.45,40.96-1.88,58.81,3.61,9.86-72.61-50.56-124.13-114.55-141.89-35.02-9.72-73.02-11.03-108.67-4.34-8.17,1.53-25.26,8.07-31.05,8.34-3.64.17-30.69-8.82-37.62-10.34-25.65-5.63-64.68-12.14-89.31-1.82-3.45,1.45-14.54,8.05-13.38,12.57,20.77,14.92,35.65,35.82,40.19,61.19-51.57,61.59-86.06,141.29-74.03,223.25.25,1.72.48,6.58,2.02,7.25,13.54-21,27-42.16,37.13-65.12,2.06-2.77,6.58-1.89,7.53,1.38,1.33,4.6-4.65,15.48-6.9,20.02-11.7,23.61-28.88,47.82-45.42,68.31-6.81,8.44-16.69,15.23-19.58,26.2.63,2.61,15.82,1.95,19.11,1.77,3.29-.18,6.71-.49,10.24-.92,16.59,40.06,49.99,91.64,76.07,120.12,5.2,5.68,12.82,13.74,18.6,18.58,1.23,1.03,1.78,2.65,3.83,2.17-22.59-39.89-24.6-114.2-17.56-167.1,19.22-10.21,36.75-23.05,49.42-38.13,35.2,22.53,98.76,46.1,97.01,47.47,11.95,21.43,35.89,31.26,59.11,38.08l33.75-37.26c-11.76-14.6-13.08-57.89-4.71-91.08.11.16.24.32.35.48,2.67,3.94,6.24,8.8,6.77,13.47,35.73-13.73,74.75-4.81,111.54-12.55,14.31-3.01,33.53-9.84,37.13-25.74-30.93,5.93-64.65,2.28-94.85-6.28Z" fill="url(#linear-gradient-12)"/><path d="M472.22,169.49c18.95,7.36,36.37,18.83,44.23,38.37,15.6,38.78-5.69,61.8-43.13,69.48-30.35,6.22-61.43,1.41-91.88,7.61-4.31.88-20.34,4.63-22.21,7.41-9.19,13.66-5.75,43.13,5.29,55.5,1.21.3,11.35-12.02,14.38-14.03,11.93-7.95,75.63-14.54,92.75-15.49,8.36-.46,37.47-1.12,43.6,2.29,4.57,2.54,6.57,11.69,5.87,16.57-1.72,11.99-29.88,47.01-39.07,57.18-11.17,12.35-41.37,43.3-55.38,49.6-22.37,10.06-85.49,17.6-110.33,16.6-11.51-.46-22-2.27-23.45-15.91-2.25-21.16,16.99-28.34,26.24-44.3-23.5-5.84-43.15-21.4-57.51-40.43-3.28-.7-17.19,23.7-19.2,27.66-23.25,45.7-29.34,116.96,17.77,149.94,25.66,17.96,36.13,1.23,60.9-4.5,21.19-4.9,47.82-3.22,67.64,6.05,4.24,1.98,22.02,12.63,23.11,16.28,4,13.41-13.9,9.46-20.99,10.27-22.6,2.58-42.18,32.65-68.45,28.33,14.77,31.76-24.79,53.74-18.34,85.61.99,4.88,12.45,14.6,4.44,17-6.67,2-24.88-9.58-30.35-14.04-22.77-18.55-32.39-44.78-31.23-73.85.19-4.84,3.52-16.87.55-20.15-1.2-1.33-26.42-9.62-31.09-11.56-80.96-33.6-151.05-110.69-177.67-194.14-3.48-4.2-29.03,4.16-34.95-2.23-14.59-15.76,17.29-37.08,23.27-49.97-17.87-87.68,14.38-175.58,70.17-242.63-2.18-15.54-12.41-33.33-24.07-43.71-3.66-3.26-14.46-8.71-16.09-10.69-3.96-4.8,2.18-14.51,5.67-18.31C84.49-8.43,144.27.97,172.65,7.11c8.81,1.9,27.44,8.9,34.5,9.24,5.84.28,28.54-7.2,37.27-8.51,57.36-8.63,121.11,1.29,169.08,35.03,40.26,28.32,69.32,75.81,58.72,126.61ZM462.34,166.27c9.86-72.61-50.56-124.13-114.55-141.89-35.02-9.72-73.02-11.03-108.67-4.34-8.17,1.53-25.26,8.07-31.05,8.34-3.64.17-30.69-8.82-37.62-10.34-25.65-5.63-64.68-12.14-89.31-1.82-3.45,1.45-14.54,8.05-13.38,12.57,20.77,14.92,35.65,35.82,40.19,61.19-51.57,61.59-86.06,141.29-74.03,223.25.25,1.72.48,6.58,2.02,7.25,13.54-21,27-42.16,37.13-65.12,2.06-2.77,6.58-1.89,7.53,1.38,1.33,4.6-4.65,15.48-6.9,20.02-11.7,23.61-28.88,47.82-45.42,68.31-6.81,8.44-16.69,15.23-19.58,26.2.63,2.61,15.82,1.95,19.11,1.77,67.07-3.63,190.23-61.03,154.39-145.81-3.52-8.32-5.93-8-10.7-13.38-4.47-5.04.32-10.47,7-6.98,10.09,5.28,13.55,20.92,17.63,30.46,48.77-37.55,124.01-21.81,157.78,28.12,2.67,3.94,6.24,8.8,6.77,13.47,35.73-13.73,74.75-4.81,111.54-12.54,14.31-3.01,33.53-9.84,37.13-25.74-30.93,5.93-64.65,2.28-94.85-6.28-19.01-5.39-49.23-17.72-62.04-33.09-5.11-6.13-13.58-19.82.93-18.44,3.55,4.22,5.49,9.55,9.43,13.55,9.29,9.44,27.53,17.86,39.93,22.4,33.84,12.38,72.12,17.42,107.71,10.92-.74-44.47-66.31-65.09-101.95-57.69-5.11,1.06-18.81,8.46-22.52,6.12-5.52-8.88,11.07-13.9,17.55-15.48,18.24-4.45,40.96-1.88,58.81,3.61ZM295.08,681.47v-19.14c0-2.2,5.07-14.71,6.37-17.69,6.02-13.75,16.95-24.72,14.14-41.12-.95-5.54-10.98-19.41-5.26-23.28,4.29-2.9,8.54,3.82,12.87,4.71,19.49,4.04,40.57-21.94,58.85-27.03,4.85-1.35,9.97-1.06,14.69-2.79-18.09-13.47-40.82-16.48-62.9-14.81-33.16,2.5-49.08,29.85-83.02,2.21-70.1-57.11-28.05-169.14,30.62-218.71,21.32-18.02,46.04-31.22,71.57-42.14-26.67-48.74-91.88-72.01-141.36-43-2.14,1.26-12.68,8.28-13.34,9.62-1.33,2.66.95,12.13.44,16.85-3.78,35.11-41.68,70.83-70.35,88.21-13.67,43.26-10.6,92.61,6.54,134.46,17.39,42.44,46.35,64.75,87.99,81.51,5.15,2.07,31.9,9.95,33.3,11.53,4.73,5.36.81,18.54.59,24.6-.48,13.75-.26,24.99,4.62,38,5.77,15.4,18.38,31.36,33.63,38ZM347.56,295.35c-22.77,9.02-46.44,23.31-64.51,39.9-5.38,4.94-9.58,10.95-15.28,15.4,11.94,21.43,33.55,35.84,56.77,42.67l33.75-37.26c-13.63-16.92-17.31-40.04-10.73-60.71ZM511.55,331.43c-.42-1.86-2.73-2.4-4.31-2.78-20.02-4.89-90.6,3.56-111.81,9.67-10.83,3.12-13.61,5.94-21.1,13.89-24.71,26.24-46.42,55.69-71,82.1l-1.69,10.88,55.27-59.1c3.8-.55,6.68,1.9,5.79,5.79l-50.13,58.77c31.02-.3,63.93-2.52,94.03-10.37,30.72-8.01,65.1-46.83,84.6-71.77,3.12-3.99,17.16-22.4,18.14-25.61.52-1.7-.15-1.75-1.63-1.64-7.17.52-14.99,2.45-22.17,3.01-1.85.14-3.44-.81-5.04-.68-15.35,1.23-30.67,3.62-46.09,4.31-4.01.44-6.45-4.86-4.39-7.78,2.36-3.35,72.1-6.65,81.52-8.69ZM115.78,359.89c-11.51,5.02-23.11,9.94-35.24,13.41-9.85,2.82-20.5,3.75-29.76,6.32-1.19.33-2.01.32-2.75,1.58,13.64,41.21,36.87,79.13,66.09,111.05,5.2,5.68,12.82,13.74,18.6,18.58,1.23,1.03,1.78,2.65,3.83,2.17-26.2-46.26-31.95-101.36-20.78-153.12Z"/><path d="M295.08,681.47c-15.25-6.64-27.86-22.6-33.63-38-4.87-13.02-5.1-24.25-4.62-38,.21-6.06,4.13-19.24-.59-24.6-1.4-1.58-28.15-9.46-33.3-11.53-41.64-16.76-70.6-39.07-87.99-81.51-17.14-41.85-20.21-91.19-6.54-134.46,28.66-17.39,66.57-53.11,70.35-88.21.51-4.72-1.77-14.2-.44-16.85.67-1.34,11.2-8.37,13.34-9.62,49.48-29.01,114.69-5.74,141.36,43-25.54,10.91-50.25,24.12-71.57,42.14-58.67,49.57-100.72,161.61-30.62,218.71,33.94,27.65,49.86.29,83.02-2.21,22.08-1.66,44.81,1.35,62.9,14.81-4.73,1.73-9.85,1.44-14.69,2.79-18.28,5.09-39.36,31.07-58.85,27.03-4.32-.9-8.57-7.61-12.87-4.71-5.72,3.86,4.31,17.73,5.26,23.28,2.81,16.4-8.12,27.37-14.14,41.12-1.3,2.98-6.37,15.49-6.37,17.69v19.14Z" fill="url(#linear-gradient-13)"/><path d="M511.55,331.43c-9.42,2.04-79.15,5.34-81.52,8.69-2.06,2.92.38,8.22,4.39,7.78,15.42-.69,30.74-3.07,46.09-4.31,1.6-.13,3.19.83,5.04.68,7.18-.56,15-2.49,22.17-3.01,1.47-.11,2.15-.06,1.63,1.64-.98,3.21-15.02,21.62-18.14,25.61-19.5,24.94-53.88,63.77-84.6,71.77-30.1,7.85-63.01,10.07-94.03,10.37l50.13-58.77c.89-3.89-1.99-6.34-5.79-5.79l-55.27,59.1,1.69-10.88c24.57-26.42,46.29-55.87,71-82.1,7.49-7.96,10.27-10.77,21.1-13.89,21.21-6.11,91.78-14.56,111.81-9.67,1.58.39,3.9.92,4.31,2.78ZM412.64,342.94c-3.73-.2-12.25.94-15.87,2.18-4.98,1.69-24.17,18.36-23.81,22.78l1.37,2.93c6.34,5.62,17.75-13.68,23.84-16.65,5.27-2.56,12.7-1.68,18.31-3.55,2.66-4.13,1.14-7.42-3.84-7.68Z" fill="url(#linear-gradient-14)"/><path d="M424.93,377.66c8.85-1.11,17.15,2.51,17.81,12.26,1.52,22.23-35.5,43.22-45.35,25.66-8.82-15.73,12.81-36.07,27.53-37.92ZM405.66,411.13c9.25,4.63,22.02-5.76,25.94-13.65,1.46-2.95,3.16-6.28.72-9.18-7.67-6.73-31.27,12.11-26.65,22.83Z"/><path d="M412.64,342.94c4.98.26,6.5,3.56,3.84,7.68-5.61,1.88-13.04.99-18.31,3.55-6.09,2.97-17.5,22.27-23.84,16.65l-1.37-2.93c-.36-4.42,18.84-21.09,23.81-22.78,3.62-1.23,12.15-2.37,15.87-2.18Z"/><path d="M335.53,159.71c-16.3-3.3-28.09,8.71-43.16-3.31-22.61-18.04-4.89-47.03,22.4-39.92,10.25,2.67,20.75,7.24,20.75,24.08v19.14ZM300.54,125.81c-9.16,1.99-11.3,11.25-7.4,18.89,1.2,2.35,7.44,8.59,6.1,2.65-.93-4.12-3.62-7.55-3.05-12.16.51-4.14,4.77-5.17,4.35-9.39ZM324.29,132.7c0-3.48-2.82-6.3-6.3-6.3s-6.3,2.82-6.3,6.3,2.82,6.3,6.3,6.3,6.3-2.82,6.3-6.3Z"/><circle cx="317.99" cy="132.7" r="6.3" fill="#fff"/><path d="M300.54,125.81c.42,4.22-3.83,5.25-4.35,9.39-.57,4.61,2.12,8.04,3.05,12.16,1.34,5.93-4.9-.3-6.1-2.65-3.89-7.64-1.76-16.91,7.4-18.89Z" fill="#fff"/></g><path d="M237.97,107.25v-38.85h-24.49v39.98c-9.9,4.97-16.72,15.18-16.72,27.02,0,16.7,13.54,30.24,30.24,30.24s30.24-13.54,30.24-30.24c0-12.82-8-23.75-19.26-28.15Z" fill="url(#linear-gradient-15)"/><g id="XO4d9p.tif"><path d="M253.34,2.13l1.11,4.45c-3.32,21.76-4.5,43.48-8.58,64.08-.96,4.82-1.15,6.17-6.07,7.8l.05,18.41c23.33,7.86,34.08,32.97,23.87,55.9-1.7,3.81-7.77,9.59-6.91,12.68.2.72,8.44,11.02,9.35,11.76,1.19.96,24.85,8.62,27.01,8.84,2.79.28,3.54-1.97,5.49-2.49,9.25-2.47,22.65-1.35,28.2,7.57,10.89,17.51-17.11,23.34-29.75,11.92-2.63-2.37-2.92-4.95-4.71-6.86-4.22-4.53-23.04-6.6-29.73-10.22-4.25-2.3-11.7-14.94-14.06-15.38-50.14,25.28-87.05-43.78-38.83-72.77l.37-19.86s-2.79-.21-4.04-1.66c-3.7-4.32-.89-55.58.28-64.7,14.55-6.89,30.76-10.58,46.95-9.49ZM230.38,77.79h-11.56v17.9s3.39-.68,5.78-.68,5.78.68,5.78.68v-17.9ZM249.78,135.4c0-12.61-10.2-22.83-22.79-22.83s-22.79,10.22-22.79,22.83,10.2,22.83,22.79,22.83,22.79-10.22,22.79-22.83Z"/></g></g></svg>