<?xml version="1.0" encoding="UTF-8"?><svg id="Layer_1" xmlns="http://www.w3.org/2000/svg" width="2000" height="2000" xmlns:xlink="http://www.w3.org/1999/xlink" viewBox="0 0 2000 2000"><defs><linearGradient id="linear-gradient" x1="1215.2" y1="246.56" x2="598.89" y2="1314.03" gradientUnits="userSpaceOnUse"><stop offset="0" stop-color="#00f8f8"/><stop offset="1" stop-color="#00bec0"/></linearGradient><linearGradient id="linear-gradient-2" x1="795.79" y1="800.19" x2="1284.86" y2="1647.29" gradientUnits="userSpaceOnUse"><stop offset="0" stop-color="#e1faf9"/><stop offset="1" stop-color="#00e6e4"/></linearGradient><linearGradient id="linear-gradient-3" x1="1453.36" y1="887.45" x2="1218.35" y2="1294.49" gradientUnits="userSpaceOnUse"><stop offset="0" stop-color="#ffb800"/><stop offset="1" stop-color="#ffa300"/></linearGradient><linearGradient id="linear-gradient-4" x1="987.98" y1="361.64" x2="867.12" y2="570.98" gradientUnits="userSpaceOnUse"><stop offset="0" stop-color="#ffb800"/><stop offset=".33" stop-color="#ffb500"/><stop offset=".52" stop-color="#ffad00"/><stop offset=".65" stop-color="#ffa300"/><stop offset=".9" stop-color="#f70"/></linearGradient></defs><g id="SPpA5D.tif"><path d="M1353.59,737.68c-43.74-12.39-113.25-40.77-142.73-76.13-11.76-14.1-31.23-45.6,2.14-42.42,8.16,9.71,12.62,21.97,21.69,31.17,21.37,21.71,63.33,41.1,91.86,51.53,77.86,28.47,165.92,40.07,247.79,25.11-1.7-102.31-152.54-149.73-234.53-132.73-11.75,2.44-43.27,19.47-51.82,14.08-12.69-20.44,25.48-31.97,40.37-35.61,41.96-10.24,94.23-4.32,135.29,8.3,22.67-167.05-116.31-285.57-263.52-326.42-80.57-22.36-167.99-25.38-250-9.99-18.8,3.53-58.1,18.57-71.43,19.2-8.38.39-70.6-20.3-86.54-23.8-59.01-12.96-148.79-27.92-205.45-4.19-7.94,3.33-33.44,18.53-30.78,28.92,47.77,34.33,82.02,82.41,92.47,140.77-118.64,141.68-197.99,325.04-170.3,513.6.58,3.96,1.1,15.15,4.65,16.69,31.15-48.32,62.12-96.99,85.42-149.81,4.74-6.37,15.14-4.35,17.31,3.17,3.06,10.57-10.71,35.61-15.88,46.05-26.92,54.32-66.44,110.01-104.5,157.16-15.66,19.41-38.4,35.04-45.05,60.27,1.45,5.99,36.4,4.48,43.96,4.07,7.56-.41,15.44-1.12,23.56-2.12,38.16,92.16,115.01,210.81,174.99,276.34,11.96,13.07,29.49,31.61,42.78,42.75,2.83,2.37,4.09,6.11,8.81,5-51.97-91.76-56.59-262.72-40.4-384.43,44.21-23.49,84.54-53.03,113.69-87.72,80.98,51.82,227.21,106.06,223.17,109.21,27.48,49.29,82.57,71.91,135.98,87.61l77.64-85.72c-27.05-33.6-30.09-133.19-10.84-209.53.26.38.54.73.8,1.11,6.13,9.07,14.35,20.25,15.58,31,82.2-31.59,171.97-11.06,256.6-28.86,32.91-6.92,77.14-22.63,85.41-59.21-71.15,13.64-148.74,5.24-218.2-14.44Z" fill="url(#linear-gradient)"/><path d="M1486.36,588.39c43.59,16.94,83.67,43.31,101.76,88.28,35.89,89.22-13.09,142.18-99.21,159.84-69.83,14.31-141.32,3.23-211.38,17.5-9.91,2.02-46.79,10.65-51.08,17.04-21.14,31.43-13.22,99.22,12.17,127.67,2.77.7,26.11-27.65,33.08-32.29,27.44-18.28,173.98-33.46,213.39-35.63,19.23-1.06,86.19-2.57,100.31,5.28,10.51,5.84,15.12,26.89,13.52,38.12-3.95,27.58-68.75,108.16-89.89,131.54-25.69,28.41-95.17,99.61-127.4,114.11-51.47,23.15-196.68,40.5-253.82,38.19-26.48-1.07-50.61-5.21-53.95-36.59-5.18-48.67,39.08-65.2,60.36-101.9-54.07-13.44-99.27-49.24-132.31-93.02-7.55-1.6-39.54,54.53-44.17,63.63-53.48,105.14-67.5,269.08,40.89,344.95,59.04,41.33,83.12,2.83,140.11-10.35,48.75-11.27,110.02-7.4,155.62,13.92,9.77,4.57,50.65,29.05,53.16,37.46,9.21,30.85-31.98,21.77-48.29,23.63-51.99,5.94-97.03,75.12-157.46,65.18,33.98,73.07-57.04,123.63-42.19,196.95,2.27,11.23,28.64,33.59,10.21,39.11-15.35,4.6-57.24-22.05-69.83-32.3-52.38-42.67-74.52-103.01-71.84-169.91.45-11.15,8.1-38.82,1.27-46.37-2.77-3.06-60.77-22.13-71.51-26.58-186.25-77.31-347.5-254.64-408.75-446.62-8.02-9.65-66.79,9.58-80.4-5.12-33.57-36.27,39.77-85.3,53.54-114.97-41.11-201.71,33.09-403.94,161.44-558.17-5.01-35.74-28.54-76.67-55.36-100.56-8.43-7.51-33.27-20.04-37.01-24.58-9.11-11.05,5.02-33.38,13.03-42.12,50.04-54.61,187.55-32.97,252.85-18.85,20.26,4.38,63.12,20.49,79.38,21.26,13.44.64,65.65-16.56,85.73-19.58,131.96-19.85,278.63,2.96,388.98,80.6,92.61,65.16,159.47,174.4,135.08,291.27ZM1463.64,581c22.67-167.05-116.31-285.57-263.52-326.42-80.57-22.36-167.99-25.38-250-9.99-18.8,3.53-58.1,18.57-71.43,19.2-8.38.39-70.6-20.3-86.54-23.8-59.01-12.96-148.79-27.92-205.45-4.19-7.94,3.33-33.44,18.53-30.78,28.93,47.77,34.33,82.02,82.41,92.47,140.77-118.64,141.68-197.99,325.04-170.31,513.61.58,3.96,1.1,15.15,4.65,16.69,31.15-48.32,62.12-96.99,85.42-149.81,4.74-6.37,15.14-4.35,17.31,3.17,3.05,10.57-10.71,35.61-15.88,46.05-26.92,54.32-66.44,110.01-104.49,157.16-15.66,19.41-38.4,35.04-45.05,60.27,1.45,5.99,36.4,4.48,43.96,4.07,154.29-8.34,437.63-140.41,355.18-335.45-8.09-19.14-13.64-18.4-24.63-30.78-10.29-11.59.74-24.09,16.1-16.05,23.21,12.15,31.17,48.13,40.55,70.07,112.2-86.37,285.28-50.18,362.98,64.7,6.13,9.07,14.35,20.25,15.58,31,82.2-31.59,171.97-11.06,256.6-28.86,32.91-6.92,77.14-22.63,85.41-59.21-71.15,13.64-148.74,5.24-218.2-14.44-43.74-12.39-113.25-40.78-142.73-76.13-11.76-14.1-31.23-45.6,2.14-42.42,8.16,9.71,12.62,21.96,21.69,31.17,21.37,21.71,63.33,41.1,91.86,51.53,77.86,28.47,165.92,40.07,247.79,25.11-1.7-102.31-152.54-149.73-234.53-132.73-11.75,2.44-43.27,19.47-51.82,14.08-12.69-20.44,25.48-31.97,40.37-35.61,41.96-10.24,94.23-4.32,135.29,8.3ZM1078.86,1766.23v-44.04c0-5.07,11.65-33.85,14.65-40.7,13.85-31.63,39-56.87,32.54-94.59-2.18-12.75-25.26-44.66-12.09-53.55,9.88-6.67,19.66,8.78,29.6,10.84,44.84,9.29,93.34-50.47,135.38-62.18,11.15-3.11,22.93-2.44,33.81-6.42-41.61-30.98-93.9-37.91-144.7-34.08-76.29,5.75-112.92,68.68-190.99,5.08-161.28-131.38-64.54-389.12,70.44-503.16,49.06-41.45,105.91-71.83,164.66-96.93-61.34-112.12-211.38-165.66-325.2-98.92-4.93,2.89-29.16,19.06-30.7,22.13-3.05,6.11,2.18,27.91,1.01,38.77-8.69,80.77-95.89,162.94-161.83,202.94-31.45,99.53-24.38,213.05,15.05,309.32,40,97.65,106.63,148.96,202.42,187.52,11.84,4.77,73.39,22.88,76.61,26.53,10.87,12.32,1.86,42.66,1.37,56.59-1.11,31.64-.59,57.49,10.62,87.43,13.27,35.42,42.28,72.15,77.37,87.42ZM1199.57,877.95c-52.38,20.74-106.84,53.63-148.42,91.8-12.38,11.37-22.03,25.19-35.14,35.43,27.48,49.29,77.19,82.46,130.6,98.16l77.64-85.72c-31.35-38.94-39.82-92.11-24.68-139.67ZM1576.85,960.95c-.96-4.27-6.28-5.51-9.93-6.4-46.06-11.25-208.43,8.19-257.21,22.24-24.91,7.18-31.3,13.66-48.54,31.96-56.84,60.36-106.79,128.11-163.33,188.88l-3.88,25.03,127.14-135.96c8.73-1.27,15.37,4.37,13.32,13.33l-115.32,135.2c71.37-.69,147.08-5.8,216.33-23.85,70.67-18.42,149.77-107.73,194.63-165.12,7.18-9.19,39.47-51.54,41.72-58.92,1.2-3.92-.35-4.02-3.74-3.77-16.48,1.2-34.48,5.64-51,6.92-4.25.33-7.91-1.87-11.6-1.57-35.32,2.84-70.55,8.32-106.03,9.91-9.21,1.02-14.83-11.18-10.1-17.89,5.44-7.71,165.87-15.3,187.53-19.99ZM666.37,1026.42c-26.48,11.55-53.18,22.86-81.06,30.85-22.67,6.49-47.17,8.63-68.46,14.54-2.73.76-4.64.74-6.32,3.64,31.37,94.82,84.82,182.03,152.05,255.48,11.96,13.06,29.49,31.6,42.79,42.75,2.83,2.37,4.09,6.11,8.81,5-60.28-106.43-73.51-233.19-47.8-352.26Z"/><path d="M1078.86,1766.23c-35.09-15.27-64.1-52-77.37-87.42-11.21-29.94-11.73-55.8-10.62-87.43.49-13.93,9.5-44.27-1.37-56.59-3.21-3.64-64.76-21.76-76.61-26.53-95.79-38.56-162.42-89.87-202.42-187.52-39.44-96.28-46.5-209.79-15.05-309.32,65.94-40,153.15-122.18,161.83-202.94,1.17-10.86-4.06-32.66-1.01-38.77,1.54-3.07,25.77-19.25,30.7-22.13,113.82-66.73,263.86-13.2,325.2,98.92-58.75,25.11-115.6,55.49-164.66,96.93-134.98,114.04-231.71,371.78-70.44,503.16,78.08,63.6,114.71.67,190.99-5.08,50.8-3.83,103.09,3.1,144.7,34.08-10.88,3.98-22.66,3.31-33.81,6.42-42.05,11.71-90.54,71.47-135.38,62.18-9.95-2.06-19.72-17.51-29.6-10.84-13.16,8.88,9.91,40.79,12.09,53.55,6.46,37.72-18.69,62.96-32.54,94.59-3,6.85-14.65,35.63-14.65,40.7v44.04Z" fill="url(#linear-gradient-2)"/><path d="M1576.85,960.95c-21.66,4.69-182.09,12.28-187.53,19.99-4.74,6.71.88,18.92,10.1,17.89,35.48-1.59,70.71-7.07,106.03-9.91,3.69-.3,7.34,1.91,11.6,1.57,16.52-1.29,34.51-5.72,51-6.92,3.39-.25,4.94-.14,3.74,3.77-2.26,7.38-34.54,49.74-41.72,58.92-44.85,57.39-123.95,146.7-194.63,165.12-69.25,18.05-144.97,23.16-216.33,23.85l115.32-135.2c2.05-8.96-4.58-14.59-13.32-13.33l-127.14,135.96,3.88-25.03c56.53-60.77,106.48-128.52,163.33-188.88,17.24-18.3,23.63-24.78,48.54-31.96,48.79-14.06,211.15-33.49,257.21-22.24,3.64.89,8.97,2.13,9.93,6.4ZM1349.29,987.44c-8.58-.45-28.19,2.17-36.52,5.01-11.45,3.89-55.61,42.24-54.79,52.42l3.16,6.73c14.59,12.92,40.84-31.48,54.85-38.31,12.11-5.9,29.22-3.86,42.12-8.17,6.13-9.5,2.63-17.07-8.83-17.68Z" fill="url(#linear-gradient-3)"/><path d="M1377.57,1067.31c20.36-2.56,39.45,5.76,40.98,28.2,3.49,51.13-81.68,99.42-104.32,59.03-20.28-36.18,29.46-82.97,63.34-87.23ZM1333.25,1144.32c21.27,10.64,50.67-13.25,59.67-31.4,3.37-6.79,7.27-14.44,1.65-21.12-17.65-15.48-71.95,27.86-61.32,52.51Z"/><path d="M1349.29,987.44c11.46.61,14.96,8.18,8.83,17.68-12.91,4.31-30.01,2.27-42.12,8.17-14.02,6.83-40.26,51.23-54.85,38.31l-3.16-6.73c-.82-10.17,43.34-48.52,54.79-52.42,8.33-2.83,27.94-5.46,36.52-5.01Z"/><path d="M1171.91,565.9c-37.5-7.59-64.62,20.05-99.28-7.61-52.01-41.5-11.26-108.19,51.54-91.83,23.59,6.15,47.74,16.65,47.74,55.41v44.04ZM1091.42,487.91c-21.07,4.57-25.99,25.88-17.03,43.47,2.76,5.41,17.12,19.75,14.04,6.1-2.14-9.47-8.32-17.37-7.01-27.97,1.18-9.53,10.98-11.9,10-21.6ZM1146.04,503.76c0-8-6.49-14.49-14.48-14.49s-14.48,6.49-14.48,14.49,6.49,14.49,14.48,14.49,14.48-6.49,14.48-14.49Z"/><ellipse cx="1131.56" cy="503.76" rx="14.48" ry="14.49" fill="#fff"/><path d="M1091.42,487.91c.98,9.71-8.82,12.07-10,21.6-1.32,10.6,4.87,18.49,7.01,27.97,3.08,13.65-11.28-.69-14.04-6.1-8.96-17.58-4.04-38.9,17.03-43.47Z" fill="#fff"/></g><path d="M947.47,445.2v-89.37h-56.35v91.98c-22.78,11.43-38.46,34.93-38.46,62.15,0,38.42,31.14,69.56,69.56,69.56s69.56-31.14,69.56-69.56c0-29.5-18.39-54.65-44.31-64.76Z" fill="url(#linear-gradient-4)"/><g id="XO4d9p.tif"><path d="M982.82,203.37l2.55,10.24c-7.64,50.06-10.36,100.04-19.75,147.43-2.2,11.1-2.64,14.21-13.97,17.95l.12,42.36c53.66,18.08,78.39,75.84,54.92,128.6-3.9,8.77-17.88,22.07-15.9,29.18.46,1.67,19.41,25.35,21.52,27.06,2.73,2.21,57.17,19.83,62.14,20.34,6.42.66,8.14-4.53,12.62-5.73,21.28-5.68,52.12-3.1,64.88,17.42,25.06,40.29-39.37,53.7-68.45,27.42-6.04-5.46-6.71-11.38-10.83-15.79-9.71-10.42-53.01-15.18-68.39-23.51-9.77-5.29-26.91-34.38-32.34-35.38-115.36,58.17-200.27-100.71-89.33-167.41l.84-45.68s-6.43-.48-9.29-3.82c-8.52-9.93-2.05-127.86.64-148.85,33.48-15.86,70.77-24.35,108-21.84ZM930.01,377.43h-26.59v41.18s7.79-1.55,13.29-1.55,13.29,1.55,13.29,1.55v-41.18ZM974.64,509.96c0-29.01-23.47-52.53-52.42-52.53s-52.42,23.52-52.42,52.53,23.47,52.53,52.42,52.53,52.42-23.52,52.42-52.53Z"/></g></svg>