<?xml version="1.0" encoding="UTF-8"?><svg id="Layer_1" xmlns="http://www.w3.org/2000/svg" width="2000" height="2000" viewBox="0 0 2000 2000"><g id="SPpA5D.tif"><path d="M1463.64,581c-41.06-12.62-93.33-18.54-135.29-8.3-14.89,3.63-53.06,15.17-40.37,35.61,8.55,5.38,40.07-11.65,51.82-14.08,81.99-17,232.83,30.42,234.53,132.73-81.87,14.95-169.93,3.36-247.79-25.11-28.53-10.43-70.49-29.82-91.86-51.53-9.06-9.21-13.53-21.46-21.69-31.17-33.37-3.17-13.89,28.33-2.14,42.42,29.48,35.35,98.99,63.73,142.73,76.13,69.47,19.68,147.06,28.08,218.2,14.44-8.27,36.59-52.5,52.29-85.41,59.21-84.63,17.8-174.4-2.73-256.6,28.86-1.23-10.75-9.45-21.93-15.58-31-77.7-114.87-250.78-151.07-362.98-64.7-9.38-21.94-17.34-57.92-40.55-70.07-15.36-8.04-26.39,4.45-16.1,16.05,10.99,12.38,16.54,11.63,24.63,30.78,82.44,195.04-200.89,327.11-355.18,335.45-7.57.41-42.51,1.93-43.96-4.07,6.65-25.23,29.39-40.86,45.05-60.27,38.05-47.15,77.58-102.83,104.49-157.16,5.17-10.44,18.93-35.48,15.88-46.05-2.17-7.53-12.58-9.55-17.31-3.17-23.3,52.82-54.27,101.49-85.42,149.81-3.55-1.54-4.07-12.72-4.65-16.69-27.69-188.57,51.67-371.92,170.31-513.61-10.45-58.36-44.69-106.44-92.47-140.77-2.66-10.4,22.83-25.6,30.78-28.93,56.66-23.73,146.44-8.76,205.45,4.19,15.94,3.5,78.16,24.19,86.54,23.8,13.32-.63,52.63-15.67,71.43-19.2,82.01-15.39,169.43-12.37,250,9.99,147.21,40.85,286.19,159.37,263.52,326.42Z" fill="#999"/><path d="M1585.38,936.08c-14.12-7.85-81.08-6.33-100.31-5.28-39.41,2.17-185.94,17.34-213.39,35.63-6.96,4.64-30.3,32.99-33.08,32.29-25.39-28.46-33.3-96.24-12.17-127.67,4.3-6.39,41.17-15.02,51.08-17.04,70.06-14.27,141.55-3.19,211.38-17.5,86.12-17.65,135.11-70.62,99.21-159.84-18.09-44.97-58.18-71.34-101.76-88.28,24.39-116.88-42.47-226.12-135.08-291.27-103.96-73.14-240.16-97.61-365.93-83.6l-2.53-10.14c-37.23-2.51-74.52,5.98-108,21.84-.31,2.39-.66,6.04-1.04,10.63-17.92-2.19-57.39-16.85-76.59-21.01-65.29-14.12-202.81-35.76-252.85,18.85-8.01,8.75-22.15,31.07-13.03,42.12,3.74,4.54,28.58,17.08,37.01,24.58,26.82,23.89,50.35,64.82,55.36,100.56-128.35,154.24-202.54,356.46-161.44,558.17-13.77,29.66-87.11,78.7-53.54,114.97,13.61,14.7,72.38-4.53,80.4,5.12,61.24,191.98,222.5,369.32,408.75,446.62,10.74,4.46,68.75,23.53,71.51,26.58,6.83,7.55-.83,35.22-1.27,46.37-2.68,66.9,19.45,127.24,71.84,169.91,12.59,10.25,54.48,36.9,69.83,32.3,18.43-5.52-7.94-27.88-10.21-39.11-14.85-73.32,76.17-123.87,42.19-196.95,60.43,9.94,105.47-59.24,157.46-65.18,16.31-1.86,57.5,7.22,48.29-23.63-2.51-8.42-43.39-32.9-53.16-37.46-45.6-21.32-106.87-25.19-155.62-13.92-56.99,13.18-81.07,51.68-140.11,10.35-108.39-75.87-94.37-239.81-40.89-344.95,4.63-9.1,36.61-65.23,44.17-63.63,33.04,43.78,78.25,79.58,132.31,93.02-21.28,36.7-65.54,53.23-60.36,101.9,3.34,31.38,27.47,35.53,53.95,36.59,57.14,2.3,202.36-15.05,253.82-38.19,32.23-14.5,101.71-85.7,127.4-114.11,21.14-23.38,85.94-103.96,89.89-131.54,1.61-11.23-3-32.27-13.52-38.12ZM930.01,377.43v41.18s-7.79-1.55-13.29-1.55-13.29,1.55-13.29,1.55v-41.18h26.59ZM922.22,457.43c28.95,0,52.42,23.52,52.42,52.53s-23.47,52.53-52.42,52.53-52.42-23.52-52.42-52.53,23.47-52.53,52.42-52.53ZM464.02,1056.71c-7.57.41-42.51,1.93-43.96-4.07,6.65-25.23,29.39-40.86,45.05-60.27,38.05-47.15,77.58-102.83,104.49-157.16,5.17-10.44,18.93-35.48,15.88-46.05-2.17-7.53-12.58-9.55-17.31-3.17-23.3,52.82-54.27,101.49-85.42,149.81-3.55-1.54-4.07-12.72-4.65-16.69-27.69-188.57,51.67-371.92,170.31-513.61-10.45-58.36-44.69-106.44-92.47-140.77-2.66-10.4,22.83-25.6,30.78-28.93,56.66-23.73,146.44-8.76,205.45,4.19,13.64,2.99,61.14,18.57,79.83,22.76-2.35,42.59-3.87,104.24,2.18,111.3,2.86,3.34,9.29,3.82,9.29,3.82l-.84,45.68c-110.93,66.69-26.03,225.57,89.33,167.41,5.42,1,22.56,30.09,32.34,35.38,15.38,8.33,58.67,13.08,68.39,23.51,4.11,4.41,4.78,10.33,10.83,15.79,29.08,26.28,93.51,12.87,68.45-27.42-12.77-20.52-43.6-23.1-64.88-17.42-4.48,1.2-6.2,6.38-12.62,5.73-4.97-.51-59.41-18.13-62.14-20.34-2.11-1.71-21.06-25.39-21.52-27.06-1.98-7.11,12-20.41,15.9-29.18,23.48-52.76-1.25-110.52-54.92-128.6l-.12-42.36c11.33-3.74,11.77-6.85,13.97-17.95,7.76-39.18,10.97-80.13,16.17-121.44,72.57-9.31,148.05-4.52,218.33,14.98,147.21,40.85,286.19,159.37,263.52,326.42-41.06-12.62-93.33-18.54-135.29-8.3-14.89,3.63-53.06,15.17-40.37,35.6,8.55,5.38,40.07-11.65,51.82-14.08,81.99-17,232.83,30.42,234.53,132.73-81.87,14.95-169.93,3.36-247.79-25.11-28.53-10.43-70.49-29.82-91.86-51.53-9.06-9.21-13.53-21.46-21.69-31.17-33.37-3.17-13.89,28.33-2.14,42.42,29.48,35.35,98.99,63.73,142.73,76.13,69.47,19.68,147.06,28.08,218.2,14.44-8.27,36.59-52.5,52.29-85.41,59.21-84.63,17.8-174.4-2.73-256.6,28.86-1.23-10.75-9.45-21.93-15.58-31-77.7-114.87-250.78-151.07-362.98-64.7-9.38-21.94-17.34-57.92-40.55-70.07-15.36-8.04-26.39,4.45-16.1,16.05,10.99,12.38,16.54,11.63,24.63,30.78,82.44,195.04-200.89,327.11-355.18,335.45ZM705.36,1373.68c-13.3-11.14-30.83-29.68-42.79-42.75-67.23-73.45-120.68-160.67-152.05-255.48,1.68-2.89,3.59-2.88,6.32-3.64,21.29-5.91,45.8-8.05,68.46-14.54,27.89-7.99,54.58-19.3,81.06-30.85-25.71,119.07-12.48,245.83,47.8,352.26-4.72,1.1-5.98-2.63-8.81-5ZM977.05,1446.59c78.08,63.6,114.71.67,190.99-5.08,50.8-3.83,103.09,3.1,144.7,34.08-10.88,3.98-22.66,3.31-33.81,6.42-42.05,11.71-90.54,71.47-135.38,62.18-9.95-2.06-19.72-17.51-29.6-10.84-13.16,8.88,9.91,40.79,12.09,53.55,6.46,37.72-18.69,62.96-32.54,94.59-3,6.85-14.65,35.63-14.65,40.7v44.04c-35.09-15.27-64.1-52-77.37-87.42-11.21-29.94-11.73-55.8-10.62-87.43.49-13.93,9.5-44.27-1.37-56.59-3.21-3.64-64.76-21.76-76.61-26.53-95.79-38.56-162.42-89.87-202.42-187.52-39.44-96.28-46.5-209.79-15.05-309.32,65.94-40,153.15-122.18,161.83-202.94,1.17-10.86-4.06-32.66-1.01-38.77,1.54-3.07,25.77-19.25,30.7-22.13,113.82-66.73,263.86-13.2,325.2,98.92-58.75,25.11-115.6,55.49-164.66,96.93-134.98,114.04-231.71,371.78-70.44,503.16ZM1016.01,1005.19c13.12-10.25,22.76-24.06,35.14-35.43,41.58-38.17,96.04-71.06,148.42-91.8-15.14,47.56-6.66,100.74,24.68,139.67l-77.64,85.72c-53.41-15.7-103.12-48.87-130.6-98.16ZM1399.41,998.84c35.48-1.59,70.71-7.07,106.03-9.91,3.69-.3,7.34,1.91,11.6,1.57,16.52-1.29,34.51-5.72,51-6.92,3.39-.25,4.94-.14,3.74,3.77-2.26,7.38-34.54,49.74-41.72,58.92-44.85,57.39-123.95,146.7-194.63,165.12-69.25,18.05-144.97,23.16-216.33,23.85l115.32-135.2c2.05-8.96-4.58-14.59-13.32-13.33l-127.14,135.96,3.88-25.03c56.53-60.77,106.48-128.52,163.33-188.88,17.24-18.3,23.63-24.78,48.54-31.96,48.79-14.06,211.15-33.49,257.22-22.24,3.64.89,8.97,2.13,9.93,6.4-21.66,4.69-182.09,12.28-187.53,19.99-4.74,6.71.88,18.92,10.1,17.89Z"/><path d="M1078.86,1766.23c-35.09-15.27-64.1-52-77.37-87.42-11.21-29.94-11.73-55.8-10.62-87.43.49-13.93,9.5-44.27-1.37-56.59-3.21-3.64-64.76-21.76-76.61-26.53-95.79-38.56-162.42-89.87-202.42-187.52-39.44-96.28-46.5-209.79-15.05-309.32,65.94-40,153.15-122.18,161.83-202.94,1.17-10.86-4.06-32.66-1.01-38.77,1.54-3.07,25.77-19.25,30.7-22.13,113.82-66.73,263.86-13.2,325.2,98.92-58.75,25.11-115.6,55.49-164.66,96.93-134.98,114.04-231.71,371.78-70.44,503.16,78.08,63.6,114.71.67,190.99-5.08,50.8-3.83,103.09,3.1,144.7,34.08-10.88,3.98-22.66,3.31-33.81,6.42-42.05,11.71-90.54,71.47-135.38,62.18-9.95-2.06-19.72-17.51-29.6-10.84-13.16,8.88,9.91,40.79,12.09,53.55,6.46,37.72-18.69,62.96-32.54,94.59-3,6.85-14.65,35.63-14.65,40.7v44.04Z" fill="#d4d4d4"/><path d="M666.37,1026.42c-25.71,119.07-12.48,245.83,47.8,352.26-4.72,1.1-5.98-2.63-8.81-5-13.3-11.14-30.83-29.68-42.79-42.75-67.23-73.45-120.68-160.67-152.05-255.48,1.68-2.89,3.59-2.88,6.32-3.64,21.29-5.91,45.8-8.05,68.46-14.54,27.89-7.99,54.58-19.3,81.06-30.85Z" fill="#999"/><path d="M1199.57,877.95c-15.14,47.56-6.66,100.74,24.68,139.67l-77.64,85.72c-53.41-15.7-103.12-48.87-130.6-98.16,13.12-10.25,22.76-24.06,35.14-35.43,41.58-38.17,96.04-71.06,148.42-91.8Z" fill="#999"/><path d="M1576.85,960.96c-21.66,4.69-182.09,12.28-187.53,19.99-4.74,6.71.88,18.92,10.1,17.89,35.48-1.59,70.71-7.07,106.03-9.91,3.69-.3,7.34,1.91,11.6,1.57,16.52-1.29,34.51-5.72,51-6.92,3.39-.25,4.94-.14,3.74,3.77-2.26,7.38-34.54,49.74-41.72,58.92-44.85,57.39-123.95,146.7-194.63,165.12-69.25,18.05-144.97,23.16-216.33,23.85l115.32-135.2c2.05-8.96-4.58-14.59-13.32-13.33l-127.14,135.96,3.88-25.03c56.53-60.77,106.48-128.52,163.33-188.88,17.24-18.3,23.63-24.78,48.54-31.96,48.79-14.06,211.15-33.49,257.21-22.24,3.64.89,8.97,2.13,9.93,6.4ZM1349.29,987.44c-8.58-.45-28.19,2.17-36.52,5.01-11.45,3.89-55.61,42.24-54.79,52.42l3.16,6.73c14.59,12.92,40.84-31.48,54.85-38.31,12.11-5.9,29.22-3.86,42.12-8.17,6.13-9.5,2.63-17.07-8.83-17.68ZM1377.57,1067.31c-33.88,4.25-83.62,51.04-63.34,87.23,22.64,40.39,107.8-7.89,104.32-59.03-1.53-22.43-20.62-30.75-40.98-28.2Z" fill="#d4d4d4"/><path d="M1377.57,1067.31c20.36-2.56,39.45,5.76,40.98,28.2,3.49,51.13-81.68,99.42-104.32,59.03-20.28-36.18,29.46-82.97,63.34-87.23ZM1333.25,1144.32c21.27,10.64,50.67-13.25,59.67-31.4,3.37-6.79,7.27-14.44,1.65-21.12-17.65-15.48-71.95,27.86-61.32,52.51Z"/><path d="M1349.29,987.44c11.46.61,14.96,8.18,8.83,17.68-12.91,4.31-30.01,2.27-42.12,8.17-14.02,6.83-40.26,51.23-54.85,38.31l-3.16-6.73c-.82-10.17,43.34-48.52,54.79-52.42,8.33-2.83,27.94-5.46,36.52-5.01Z"/><path d="M1333.25,1144.32c-10.63-24.65,43.67-67.99,61.32-52.51,5.62,6.68,1.72,14.33-1.65,21.12-9,18.14-38.4,42.04-59.67,31.4Z" fill="#d4d4d4"/><path d="M1171.91,565.9c-37.5-7.59-64.62,20.05-99.28-7.61-52.01-41.5-11.26-108.19,51.54-91.83,23.59,6.15,47.74,16.65,47.74,55.41v44.04ZM1091.42,487.91c-21.07,4.57-25.99,25.88-17.03,43.47,2.76,5.41,17.12,19.75,14.04,6.1-2.14-9.47-8.32-17.37-7.01-27.97,1.18-9.53,10.98-11.9,10-21.6ZM1146.04,503.76c0-8-6.49-14.49-14.48-14.49s-14.48,6.49-14.48,14.49,6.49,14.49,14.48,14.49,14.48-6.49,14.48-14.49Z"/><ellipse cx="1131.56" cy="503.76" rx="14.48" ry="14.49" fill="#fff"/><path d="M1091.42,487.91c.98,9.71-8.82,12.07-10,21.6-1.32,10.6,4.87,18.49,7.01,27.97,3.08,13.65-11.28-.69-14.04-6.1-8.96-17.58-4.04-38.9,17.03-43.47Z" fill="#fff"/></g></svg>