<?xml version="1.0" encoding="UTF-8"?><svg id="Layer_1" xmlns="http://www.w3.org/2000/svg" width="2000" height="2000" viewBox="0 0 2000 2000"><ellipse cx="922.22" cy="509.96" rx="52.42" ry="52.53"/><path d="M930.01,418.6v-41.18h-26.59v41.18s7.79-1.55,13.29-1.55,13.29,1.55,13.29,1.55Z"/><path d="M1585.38,936.08c-14.12-7.85-81.08-6.34-100.31-5.28-39.41,2.17-185.94,17.34-213.39,35.63-6.96,4.64-30.3,32.99-33.08,32.29-25.39-28.46-33.3-96.24-12.17-127.67,4.3-6.39,41.17-15.02,51.08-17.04,70.06-14.27,141.55-3.19,211.38-17.5,86.12-17.65,135.11-70.61,99.21-159.84-18.09-44.97-58.18-71.34-101.76-88.28,24.39-116.88-42.47-226.12-135.08-291.27-103.96-73.14-240.16-97.61-365.93-83.59l.02.1c-7.64,50.06-10.36,100.04-19.75,147.43-2.2,11.1-2.64,14.21-13.97,17.95l.13,42.36c53.66,18.08,78.39,75.84,54.92,128.6-3.9,8.77-17.88,22.07-15.9,29.18.47,1.67,19.41,25.35,21.52,27.06,2.73,2.21,57.17,19.83,62.14,20.34,6.42.65,8.14-4.53,12.62-5.73,21.28-5.68,52.12-3.1,64.88,17.42,25.06,40.29-39.37,53.7-68.45,27.42-6.04-5.46-6.71-11.38-10.83-15.79-9.71-10.42-53.01-15.18-68.39-23.51-9.77-5.29-26.91-34.38-32.34-35.38-115.36,58.17-200.27-100.71-89.33-167.41l.84-45.68s-6.43-.48-9.29-3.82c-7.55-8.8-3.32-102.48-.39-138.23-17.9-2.17-57.38-16.84-76.59-21-65.29-14.12-202.81-35.76-252.85,18.85-8.01,8.75-22.15,31.07-13.03,42.12,3.74,4.54,28.58,17.08,37.01,24.58,26.82,23.89,50.35,64.82,55.36,100.56-128.35,154.24-202.54,356.46-161.44,558.17-13.77,29.66-87.11,78.7-53.54,114.97,13.61,14.7,72.38-4.53,80.4,5.12,61.24,191.98,222.5,369.32,408.75,446.62,10.74,4.46,68.75,23.53,71.51,26.58,6.83,7.55-.83,35.22-1.27,46.37-2.68,66.9,19.46,127.24,71.84,169.91,12.59,10.25,54.48,36.9,69.83,32.3,18.43-5.52-7.94-27.88-10.21-39.11-14.85-73.32,76.17-123.87,42.19-196.95,60.43,9.94,105.47-59.24,157.46-65.18,16.31-1.86,57.5,7.22,48.29-23.63-2.51-8.42-43.39-32.9-53.16-37.46-45.6-21.32-106.87-25.19-155.62-13.92-56.99,13.18-81.07,51.68-140.11,10.35-108.39-75.87-94.37-239.81-40.89-344.95,4.63-9.1,36.61-65.23,44.17-63.63,33.04,43.78,78.25,79.58,132.31,93.02-21.28,36.7-65.54,53.23-60.36,101.9,3.34,31.38,27.47,35.53,53.95,36.59,57.14,2.3,202.36-15.05,253.82-38.19,32.23-14.5,101.71-85.7,127.4-114.11,21.14-23.38,85.94-103.96,89.89-131.54,1.61-11.23-3-32.27-13.52-38.12Z"/><path d="M903.43,377.43h26.59v41.18s-7.79-1.55-13.29-1.55-13.29,1.55-13.29,1.55v-41.18ZM922.22,457.43c28.95,0,52.42,23.52,52.42,52.53s-23.47,52.53-52.42,52.53-52.42-23.52-52.42-52.53,23.47-52.53,52.42-52.53Z"/></svg>