<?xml version="1.0" encoding="UTF-8"?><svg id="Layer_2" xmlns="http://www.w3.org/2000/svg" width="869.95" height="447.64" viewBox="0 0 869.95 447.64"><g id="Layer_1-2"><path d="M0,176.02V16.64C0,10.14,5.2,4.94,11.18,4.94h50.44c40.56,0,64.22,21.84,64.22,57.72,0,46.02-29.9,60.84-64.48,60.84H22.1v52.52c0,6.24-4.68,11.44-10.92,11.44s-11.18-5.2-11.18-11.44ZM22.1,98.54h39.52c29.64,0,41.86-11.96,41.86-35.1,0-21.84-14.56-33.28-40.82-33.28H22.1v68.38Z" fill="#fff"/><path d="M162.24,176.54v-106.08h-6.76c-6.5,0-12.22-5.2-12.22-11.96s5.2-11.96,11.7-11.96h20.54c4.68,0,8.32,3.64,8.32,8.58v121.42c0,5.98-4.68,10.92-10.92,10.92s-10.66-4.94-10.66-10.92ZM155.74,15.34c0-9.1,5.2-15.34,15.6-15.34s15.34,6.5,15.34,15.34-4.94,14.82-15.34,14.82-15.6-6.24-15.6-14.82Z" fill="#fff"/><path d="M223.08,227.24V88.14l-1.82-33.28c-.26-5.98,4.16-10.66,10.14-10.66s10.14,4.16,10.14,9.1l1.3,29.12h1.56c5.46-27.04,26.52-39.26,49.92-39.26,30.42.26,56.94,17.94,56.94,70.98s-27.56,73.06-58.24,73.06c-21.84,0-40.82-13.26-47.32-38.74h-1.56v78.78c0,5.72-4.68,10.4-10.4,10.4s-10.66-4.68-10.66-10.4ZM329.94,114.4c0-28.86-13.78-46.8-42.38-46.8-34.84,0-44.2,24.96-44.2,47.84s11.7,47.06,45.24,47.06c28.34,0,41.34-20.54,41.34-48.1Z" fill="#fff"/><path d="M499.97,153.92c0,15.86-28.6,33.54-59.02,33.54-41.34,0-67.34-24.96-67.34-72.54s26.78-71.5,66.3-71.5,62.92,22.88,62.92,62.4c0,13.26-7.02,18.2-17.94,18.2h-89.44c2.08,27.82,23.14,39.78,45.5,39.78,19.5,0,29.12-7.02,35.88-12.48,5.2-4.16,8.32-7.54,13.78-7.54,4.94,0,9.36,3.64,9.36,10.14ZM395.19,107.12l86.32-2.34c.26-23.92-14.82-38.74-41.6-38.74-21.06,0-42.9,10.92-44.72,41.08Z" fill="#fff"/><path d="M532.21,176.54v-99.06l-1.56-22.62c-.26-5.98,4.42-10.92,10.4-10.92,5.46,0,9.88,4.42,10.14,9.88l1.04,26.52h1.56c5.98-22.1,20.02-36.14,35.62-36.14,7.28,0,11.96,5.98,11.96,14.04,0,7.28-4.94,15.08-13.26,15.08-18.98,1.04-34.06,15.34-34.06,29.9v73.32c0,5.98-4.94,10.92-10.92,10.92s-10.92-4.94-10.92-10.92Z" fill="#fff"/><path d="M0,386.02v-153.14c0-12.48,6.76-21.06,18.98-21.06,10.14,0,15.86,6.5,18.72,15.86l50.7,141.7,50.18-141.7c3.12-8.84,8.84-15.86,18.98-15.86,11.96,0,18.98,8.84,18.98,20.02v154.18c0,6.24-4.94,11.44-10.92,11.44-6.5,0-11.18-5.2-11.18-11.44v-138.84h-.52l-50.18,138.84c-2.08,6.76-7.8,11.44-15.34,11.44s-13.52-4.42-15.86-10.92L22.36,247.18h-.26v138.84c0,6.24-4.68,11.44-10.92,11.44s-11.18-5.2-11.18-11.44Z" fill="#fff"/><path d="M208.26,325.18c0-42.38,22.36-72.02,66.3-72.02s66.3,29.64,66.3,71.76-22.36,72.28-66.3,72.28-66.3-29.9-66.3-72.02ZM319.79,324.92c0-33.28-17.68-48.1-45.24-48.1s-45.24,14.82-45.24,48.1,17.68,48.36,45.24,48.36,45.24-14.82,45.24-48.36Z" fill="#fff"/><path d="M371.02,386.54v-99.06l-1.56-22.62c-.26-5.98,4.42-10.92,10.4-10.92,5.46,0,9.88,4.42,10.14,9.88l1.04,26.52h1.56c5.98-22.1,20.02-36.14,35.62-36.14,7.28,0,11.96,5.98,11.96,14.04,0,7.28-4.94,15.08-13.26,15.08-18.98,1.04-34.06,15.34-34.06,29.9v73.32c0,5.98-4.94,10.92-10.92,10.92s-10.92-4.94-10.92-10.92Z" fill="#fff"/><path d="M555.87,272.66l-.78,3.12c10.4,4.16,18.2,13.26,18.2,27.04,0,31.98-27.82,44.72-59.28,44.72-12.22,0-23.4-1.82-31.98-5.2-4.42,2.08-8.32,6.5-8.32,12.22,0,7.02,5.72,11.96,16.9,11.96h50.44c22.88,0,42.64,7.54,42.64,35.36,0,24.7-16.38,45.76-71.24,45.76-47.06,0-65.78-10.92-65.78-36.4,0-16.64,14.04-26.78,29.38-27.3v-2.08c-13.78-1.82-21.84-9.62-21.84-21.84,0-11.18,7.28-18.98,19.5-21.32-13.52-6.76-20.54-20.8-20.54-37.44,0-30.42,23.66-48.1,59.28-48.1,11.7,0,25.22,3.12,32.5,5.72l25.74-6.76c9.62-2.86,17.16,2.6,17.16,11.18,0,7.28-5.72,12.74-14.56,11.7l-17.42-2.34ZM483.59,388.88c-7.54,1.3-16.38,5.98-16.38,16.12,0,15.6,17.42,20.02,44.98,20.02,33.02,0,50.18-8.06,50.18-22.36s-15.6-13.78-25.48-13.78h-53.3ZM553.01,301.26c0-18.98-18.72-26-39.52-26-23.4,0-40.3,5.72-40.3,26.26,0,18.46,14.82,24.7,39.52,24.7,13.78,0,40.3-1.56,40.3-24.96Z" fill="#fff"/><path d="M601.12,353c0-23.92,16.38-41.08,52.26-41.08,17.94,0,34.32,7.54,41.6,18.46h1.56v-23.14c0-20.8-16.12-30.16-37.44-30.16s-27.3,6.76-30.68,13.52c-2.86,5.72-3.9,11.7-11.44,11.7-6.5,0-10.4-3.9-10.4-11.18,0-20.8,22.1-37.7,54.08-37.7,34.84,0,57.46,14.56,57.46,52.52v60.06l2.34,18.72c.78,6.24-4.16,11.96-10.66,11.96-5.2,0-9.88-4.16-10.66-9.62l-1.82-16.9h-1.3c-7.54,16.9-24.18,26.26-46.8,26.26-28.08,0-48.1-14.04-48.1-43.42ZM697.57,351.7c0-12.74-17.68-20.28-38.74-20.28s-36.4,5.46-36.4,21.32c0,16.9,15.86,21.84,35.88,21.84s39.26-9.1,39.26-22.88Z" fill="#fff"/><path d="M754.25,386.54v-93.86l-1.56-27.82c0-5.98,4.16-10.92,10.4-10.92,5.46,0,10.14,4.42,10.4,9.88l.52,24.18h1.56c6.24-24.96,27.82-34.84,48.1-34.84,27.04,0,46.28,15.86,46.28,48.36v85.02c0,5.98-4.94,10.92-10.92,10.92s-10.66-4.94-10.66-10.92v-80.34c0-18.2-11.7-28.86-31.72-28.86-23.14,0-40.82,16.64-40.82,29.12v80.08c0,5.98-4.68,10.92-10.66,10.92s-10.92-4.94-10.92-10.92Z" fill="#fff"/></g></svg>